<?xml version="1.0" encoding="UTF-8" standalone="no"?>
<svg
   xmlns:dc="http://purl.org/dc/elements/1.1/"
   xmlns:cc="http://creativecommons.org/ns#"
   xmlns:rdf="http://www.w3.org/1999/02/22-rdf-syntax-ns#"
   xmlns:svg="http://www.w3.org/2000/svg"
   xmlns="http://www.w3.org/2000/svg"
   xmlns:sodipodi="http://sodipodi.sourceforge.net/DTD/sodipodi-0.dtd"
   xmlns:inkscape="http://www.inkscape.org/namespaces/inkscape"
   width="579.45288"
   height="131.44585"
   viewBox="0 0 61.32543 13.911352"
   version="1.1"
   id="svg1358"
   inkscape:version="1.0 (4035a4fb49, 2020-05-01)"
   sodipodi:docname="battlegrounds-head-background.svg">
  <defs
     id="defs1352">
    <pattern
       id="EMFhbasepattern"
       patternUnits="userSpaceOnUse"
       width="6"
       height="6"
       x="0"
       y="0" />
    <pattern
       id="EMFhbasepattern-4"
       patternUnits="userSpaceOnUse"
       width="6"
       height="6"
       x="0"
       y="0" />
    <pattern
       id="EMFhbasepattern-8"
       patternUnits="userSpaceOnUse"
       width="6"
       height="6"
       x="0"
       y="0" />
  </defs>
  <sodipodi:namedview
     units="px"
     scale-x="0.4"
     id="base"
     pagecolor="#ffffff"
     bordercolor="#666666"
     borderopacity="1.0"
     inkscape:pageopacity="0.0"
     inkscape:pageshadow="2"
     inkscape:zoom="5.6"
     inkscape:cx="525.46004"
     inkscape:cy="64.777517"
     inkscape:document-units="mm"
     inkscape:current-layer="layer1"
     inkscape:document-rotation="0"
     showgrid="false"
     fit-margin-top="0"
     fit-margin-left="0"
     fit-margin-right="0"
     fit-margin-bottom="0"
     inkscape:window-width="3440"
     inkscape:window-height="1377"
     inkscape:window-x="2552"
     inkscape:window-y="-8"
     inkscape:window-maximized="1"
     showguides="true"
     inkscape:guide-bbox="true">
    <sodipodi:guide
       position="50.333534,8.6077223"
       orientation="0,-1"
       id="guide5997" />
  </sodipodi:namedview>
  <metadata
     id="metadata1355">
    <rdf:RDF>
      <cc:Work
         rdf:about="">
        <dc:format>image/svg+xml</dc:format>
        <dc:type
           rdf:resource="http://purl.org/dc/dcmitype/StillImage" />
        <dc:title />
      </cc:Work>
    </rdf:RDF>
  </metadata>
  <g
     inkscape:label="Layer 1"
     inkscape:groupmode="layer"
     id="layer1"
     transform="translate(-161.46825,37.859428)">
    <path
       transform="matrix(0.10583333,0,0,0.10583333,161.46825,-37.859428)"
       d="M 511.67383 20.146484 L 512.05078 56.630859 C 512.39131 56.86167 512.73909 57.09794 513.10742 57.220703 C 513.33797 57.297239 513.54024 57.330193 513.75 57.435547 C 513.99661 57.558665 514.53669 57.449236 514.81836 57.542969 C 515.12545 57.645488 515.60218 57.399536 515.88867 57.542969 C 515.98316 57.588323 516.01085 57.710127 516.10156 57.755859 C 516.1677 57.787985 516.2531 57.723733 516.31641 57.755859 C 516.61971 57.907513 516.97041 57.975227 517.2793 58.078125 C 517.44938 58.134818 517.54445 58.425072 517.70508 58.505859 C 517.9687 58.637576 517.60876 58.193879 518.02734 58.611328 C 518.09349 58.676525 518.10228 58.861972 518.24023 58.933594 C 518.45 59.038665 518.65699 59.071083 518.88281 59.146484 C 519.1247 59.226799 519.61235 59.742374 519.84375 59.896484 C 519.96375 59.976799 520.43312 60.028871 520.59375 60.109375 C 520.83564 60.230131 521.00288 60.528405 521.23438 60.644531 C 521.33075 60.69272 521.45459 60.610516 521.55664 60.644531 C 521.73806 60.705004 521.70498 60.986754 521.87695 61.072266 C 522.22561 61.246218 522.49431 61.465951 522.73242 61.822266 C 522.80801 61.939336 522.8764 62.426785 522.94727 62.570312 C 523.04931 62.774407 523.27484 62.906571 523.375 63.105469 C 523.47894 63.314382 523.48395 63.644319 523.58789 63.853516 C 523.7334 64.144823 524.01155 64.270067 524.12305 64.603516 C 524.31864 65.191705 523.88777 66.9136 524.12305 67.384766 C 524.18919 67.513175 524.37911 67.576763 524.44336 67.705078 C 524.48115 67.787283 524.61946 68.228885 524.6582 68.347656 C 524.8349 68.879058 524.47962 71.929165 524.6582 72.197266 C 524.7149 72.28136 524.82668 72.321968 524.87109 72.412109 C 524.92779 72.529936 524.8333 72.714458 524.87109 72.839844 C 524.91834 72.991119 525.03391 73.116397 525.08398 73.267578 C 525.14068 73.428019 525.02729 73.642199 525.08398 73.802734 C 525.26918 74.360876 525.19141 75.022161 525.19141 75.621094 C 525.19141 76.026448 525.08463 78.297044 525.19141 78.509766 C 525.23865 78.599529 525.34855 78.638656 525.4043 78.722656 C 525.60934 79.030499 525.28524 79.754245 525.4043 80.113281 C 525.50162 80.406856 525.58672 80.688404 525.72656 80.96875 C 525.78326 81.082136 525.68877 81.275256 525.72656 81.396484 C 525.80215 81.617303 525.95617 81.645888 526.04688 81.826172 C 526.14609 82.024597 526.16251 82.268372 526.26172 82.466797 C 526.37416 82.692151 526.71526 82.908315 526.90234 83.001953 C 527.01101 83.056756 527.13674 83.235525 527.22461 83.322266 C 527.79248 83.89099 527.86087 84.096876 527.75977 84.5 C 527.72197 84.672819 527.16567 84.712891 527.00977 84.712891 C 526.59402 84.712891 524.74553 84.863977 524.44336 84.712891 C 524.30824 84.644859 524.26472 84.440389 524.12109 84.392578 C 524.10818 84.388273 524.09356 84.395613 524.08008 84.394531 C 524.39305 84.886143 524.19675 85.400612 524.44141 85.890625 C 524.46975 85.954877 524.41306 86.035768 524.44141 86.103516 C 524.55857 86.453405 524.68306 86.67741 524.87109 86.958984 C 524.98353 87.127362 524.87782 87.514055 524.97656 87.708984 C 525.0616 87.88426 524.91042 88.16287 524.97656 88.351562 C 525.0213 88.47728 525.07168 88.634774 525.12109 88.785156 L 537.48633 80.888672 L 562.51953 96.755859 L 563.94922 59.132812 L 563.80859 20.146484 L 511.67383 20.146484 z "
       style="fill:#cd0101;fill-opacity:1;stroke:none;stroke-width:2.46425;stroke-linecap:butt;stroke-linejoin:miter;stroke-miterlimit:4;stroke-dasharray:none;stroke-opacity:1"
       id="path4001-9" />
    <path
       transform="matrix(0.10583333,0,0,0.10583333,161.46825,-37.859428)"
       d="M 537.73242 8.4609375 C 537.63255 8.4603044 536.15082 11.223742 534.43945 14.601562 L 533.35547 16.742188 L 518.91602 16.742188 C 503.48874 16.742188 508.28849 16.736017 507.60156 16.091797 C 506.44229 15.003274 504.6867 14.530285 503.26172 14.923828 C 501.56509 15.392754 500.19531 16.830982 500.19531 18.146484 C 500.19531 21.650711 504.47263 23.075173 507.67578 20.638672 C 508.33096 20.140247 508.90381 20.069949 511.66797 20.146484 L 509.9668 20.234375 L 510.13867 56.314453 C 510.65766 56.425321 511.08823 56.33718 511.44727 56.257812 L 511.45312 56.257812 C 511.97659 56.505655 512.52084 57.025198 513.10742 57.220703 C 513.33797 57.297239 513.54024 57.330193 513.75 57.435547 C 513.92279 57.521812 514.23827 57.496232 514.50977 57.503906 L 514.50977 56.763672 L 514.50977 20.234375 L 531.58594 20.234375 L 531.32812 20.742188 L 532.89648 22.908203 L 534.46484 25.072266 L 534.46484 20.234375 L 537.73828 20.234375 L 541.00391 20.234375 L 541.00977 28.261719 L 541.01953 24.996094 L 542.57031 22.882812 L 544.12109 20.771484 L 543.84961 20.234375 L 560.9668 20.234375 L 560.9668 56.761719 L 560.9668 93.287109 L 549.73633 87.023438 C 540.43982 81.837378 538.33301 80.781522 537.48828 80.888672 C 536.92768 80.959992 531.52869 83.779046 525.49023 87.154297 L 524.93359 87.464844 C 524.93697 87.556584 524.9438 87.644311 524.97656 87.708984 C 525.0616 87.88426 524.91042 88.16287 524.97656 88.351562 C 525.0427 88.537421 525.11015 88.828156 525.19141 88.992188 C 525.28589 89.179747 525.52175 89.334304 525.61719 89.527344 C 525.66443 89.630903 525.66508 89.86248 525.72461 89.955078 C 525.86729 90.169283 526.07392 90.359829 526.15234 90.597656 C 526.3073 91.060837 525.94695 90.557863 526.25781 91.025391 C 526.26765 91.039982 526.28237 91.050087 526.29492 91.0625 L 534.28906 86.601562 L 534.38281 96.703125 C 534.43856 102.2583 534.55395 137.22493 534.64844 137.44141 L 534.63086 137.44141 C 534.75899 137.72827 535.60907 137.81129 537.80469 137.74609 L 540.80469 137.6582 L 540.99023 97.007812 L 541.17773 86.603516 L 551.79102 92.527344 C 557.83136 95.898748 562.75777 98.448043 563.22266 98.445312 C 565.26634 98.433738 565.12831 101.18481 565.31445 59.050781 L 565.5 20.234375 L 563.79883 20.146484 C 566.56185 20.070799 567.13432 20.1422 567.79102 20.640625 C 570.99407 23.077107 575.26953 21.650607 575.26953 18.146484 C 575.26953 16.830935 573.90246 15.392679 572.20508 14.923828 C 570.77991 14.530115 569.0247 15.002849 567.86523 16.091797 C 567.17925 16.736046 571.97806 16.742188 556.55078 16.742188 L 542.08984 16.742188 L 541.01758 14.617188 C 539.31084 11.232413 537.82691 8.4615422 537.73242 8.4609375 z "
       style="fill:#ffffff;stroke-width:0.332026;fill-opacity:1"
       id="path3973-2" />
    <path
       transform="matrix(0.10583333,0,0,0.10583333,161.46825,-37.859428)"
       d="M 519.2793 34.957031 C 519.25756 34.979085 519.63839 36.588579 520.125 38.533203 L 521.00977 42.068359 L 526.76758 47.492188 C 529.93463 50.475444 532.49155 53.012497 532.47266 53.128906 C 532.44469 53.245609 531.48851 54.326254 530.34766 55.529297 L 528.27344 57.714844 L 527.50195 56.962891 L 526.73242 56.208984 L 525.48242 57.447266 L 524.23242 58.6875 L 525.0332 59.501953 L 525.83398 60.316406 L 523.55664 62.744141 L 523.30273 63.015625 C 523.32569 63.046143 523.35804 63.071784 523.375 63.105469 C 523.47894 63.314382 523.48395 63.644319 523.58789 63.853516 C 523.7334 64.144823 524.01155 64.270067 524.12305 64.603516 C 524.31864 65.191705 523.88777 66.9136 524.12305 67.384766 C 524.18919 67.513175 524.37911 67.576763 524.44336 67.705078 C 524.48115 67.787283 524.61946 68.228885 524.6582 68.347656 C 524.76987 68.683495 524.6751 69.987822 524.63086 70.998047 L 525.82422 69.771484 L 525.40625 69.324219 L 524.98633 68.878906 L 527.41211 66.603516 L 529.83984 64.326172 L 530.6543 65.126953 L 531.46875 65.927734 L 532.70703 64.677734 L 533.94531 63.425781 L 533.18945 62.652344 L 532.43164 61.876953 L 534.72461 59.708984 C 535.98518 58.517356 537.12112 57.542969 537.23828 57.542969 C 537.3596 57.542969 538.49233 58.517347 539.75195 59.708984 L 542.04492 61.876953 L 541.28711 62.652344 L 540.53125 63.425781 L 541.76953 64.677734 L 543.00781 65.927734 L 543.82227 65.126953 L 544.63672 64.326172 L 547.0625 66.603516 L 549.48828 68.878906 L 549.05859 69.337891 L 548.62695 69.796875 L 549.875 71.044922 L 551.12305 72.291016 L 553.81641 69.59375 L 556.50781 66.896484 L 555.26758 65.644531 L 554.02539 64.394531 L 553.61719 64.779297 L 553.20898 65.166016 L 550.93164 62.740234 L 548.6543 60.314453 L 549.45312 59.5 L 550.25 58.6875 L 549 57.447266 L 547.75 56.208984 L 546.96484 56.972656 L 546.17969 57.736328 L 545.37891 56.869141 C 544.93906 56.392041 540.48557 51.655498 535.48242 46.34375 L 526.38672 36.685547 L 522.85352 35.800781 C 520.91008 35.31464 519.29819 34.935299 519.2793 34.957031 z M 555.19922 34.957031 C 555.1773 34.934921 553.57278 35.314828 551.63086 35.800781 L 548.10156 36.683594 L 543.82812 41.205078 C 541.47849 43.691421 539.53162 45.80937 539.48438 45.914062 C 539.44734 46.018066 540.4879 47.132165 541.79883 48.390625 C 543.10806 49.649312 544.23105 50.661412 544.30664 50.640625 C 544.37599 50.619649 546.46705 48.680462 548.95312 46.330078 L 553.47461 42.056641 L 554.35742 38.527344 C 554.84498 36.586008 555.21812 34.978764 555.19922 34.957031 z "
       style="fill:#ffffff;fill-opacity:1;stroke-width:0.192767"
       id="path3995-7" />
    <path
       style="fill:#ffffff;stroke-width:0.00916378;fill-opacity:1"
       d="m 214.90872,-23.795019 c -0.37525,-0.01469 -0.46112,-0.03103 -0.65488,-0.124619 l -0.10509,-0.05075 -0.0828,0.01112 c -0.14991,0.02014 -0.23187,0.02836 -0.41041,0.04112 -0.2192,0.01567 -0.27071,0.0096 -0.46962,-0.05558 -0.0554,-0.01816 -0.10343,-0.03448 -0.10664,-0.03627 -0.007,-0.0035 0.0289,-0.161587 0.0527,-0.237127 0.0211,-0.06692 0.0575,-0.158583 0.0828,-0.208966 l 0.0222,-0.04402 -0.023,-0.02727 c -0.0767,-0.09115 -0.008,-0.246718 0.10827,-0.246636 0.0207,1.8e-5 0.0636,-0.01101 0.0954,-0.0245 l 0.0578,-0.02453 -0.003,-0.05775 c -0.003,-0.05629 -0.002,-0.05871 0.0338,-0.09547 0.0201,-0.02075 0.0532,-0.04942 0.0738,-0.06373 l 0.0374,-0.02601 -0.008,-0.06249 c -0.0144,-0.122705 -0.0147,-0.123192 -0.0737,-0.171138 -0.0443,-0.0359 -0.0538,-0.0483 -0.0495,-0.06414 0.0215,-0.07834 0.0206,-0.08077 -0.0462,-0.122763 l -0.062,-0.03897 -0.0306,0.02964 c -0.024,0.02328 -0.0379,0.02945 -0.0649,0.02875 -0.0581,-0.0015 -0.13757,-0.04616 -0.20943,-0.11768 -0.10436,-0.103884 -0.10179,-0.1462 0.0155,-0.25547 0.0333,-0.03098 0.1011,-0.103744 0.15077,-0.161704 0.0496,-0.05796 0.13085,-0.147054 0.18041,-0.197985 0.0663,-0.06816 0.0901,-0.09877 0.0901,-0.115997 0,-0.04306 -0.0289,-0.249498 -0.036,-0.256887 -0.003,-0.004 -0.0285,0.0012 -0.055,0.01161 -0.11421,0.04502 -0.39304,0.07063 -0.60704,0.05574 -0.11368,-0.0079 -0.13948,-0.0072 -0.16724,0.0043 -0.0299,0.0125 -0.0329,0.01696 -0.0329,0.05054 0,0.03707 -0.0443,0.163804 -0.0682,0.195112 -0.0293,0.03841 -0.0721,0.06106 -0.11536,0.06106 -0.0778,0 -0.19986,-0.07694 -0.26029,-0.164132 -0.0252,-0.03626 -0.0276,-0.03748 -0.0774,-0.03767 -0.0629,-2.42e-4 -0.11941,-0.02427 -0.14642,-0.06221 -0.0353,-0.04964 -0.0558,-0.105751 -0.056,-0.1536 -1.7e-4,-0.03345 -0.008,-0.06043 -0.0267,-0.09622 -0.0275,-0.05163 -0.056,-0.159369 -0.0558,-0.211913 4e-5,-0.01665 0.007,-0.04185 0.0135,-0.05602 0.0117,-0.02253 0.0118,-0.03286 1.8e-4,-0.08282 -0.0147,-0.06328 -0.0103,-0.136214 0.0103,-0.168635 0.0123,-0.01942 0.0117,-0.02062 -0.0105,-0.02062 -0.041,0 -0.0751,-0.02548 -0.10924,-0.08167 -0.037,-0.06089 -0.0692,-0.146643 -0.0692,-0.184175 0,-0.0136 0.01,-0.03546 0.0221,-0.04859 0.0326,-0.03523 0.0749,-0.04212 0.12596,-0.02055 0.0235,0.0099 0.0293,-0.02449 0.0136,-0.07972 -0.093,-0.32684 -0.0947,-0.651938 -0.006,-1.028581 0.0447,-0.188751 0.12992,-0.385846 0.23412,-0.541691 0.0612,-0.09141 0.1961,-0.259358 0.1961,-0.243987 0,0.0047 -0.008,0.06184 -0.018,0.12684 -0.0415,0.272103 -0.0498,0.391288 -0.0503,0.718402 -4.4e-4,0.343653 0.005,0.404352 0.0507,0.591065 0.0429,0.173952 0.0829,0.288659 0.10086,0.288659 0.0191,0 0.035,0.01871 0.0443,0.05211 l 0.007,0.02578 0.0139,-0.0325 c 0.0167,-0.03914 0.0651,-0.08206 0.0926,-0.08202 0.0338,5.5e-5 0.0761,0.03293 0.096,0.07467 0.0178,0.03725 0.0474,0.178332 0.0475,0.226113 1e-5,0.01173 -0.0115,0.03287 -0.0257,0.04698 l -0.0257,0.02565 0.0173,0.0356 c 0.0138,0.02838 0.0306,0.04257 0.0829,0.07005 0.0361,0.01895 0.076,0.03415 0.0886,0.03378 0.0126,-3.8e-4 0.11569,-0.0243 0.22909,-0.05318 l 0.20619,-0.05249 7.1e-4,-0.05929 c 6.1e-4,-0.03261 0.006,-0.07488 0.0108,-0.09395 0.009,-0.03342 0.008,-0.03676 -0.0347,-0.09275 -0.0547,-0.0714 -0.0825,-0.122052 -0.0825,-0.150558 0,-0.03435 0.0246,-0.07734 0.0823,-0.144197 0.0321,-0.03717 0.0637,-0.08627 0.0789,-0.122359 0.0139,-0.03315 0.0514,-0.112988 0.0834,-0.177411 l 0.0582,-0.117131 -0.0647,-0.07688 -0.0647,-0.07688 -0.0707,0.03507 c -0.0926,0.04595 -0.20472,0.08045 -0.31807,0.09784 -0.15215,0.02335 -0.40283,0.0029 -0.44183,-0.03617 -0.0135,-0.01347 -0.007,-0.0263 0.0772,-0.15494 0.11402,-0.174116 0.18784,-0.302989 0.24832,-0.433501 0.0444,-0.0959 0.10854,-0.276609 0.10084,-0.284305 -0.003,-0.0019 -0.0291,0.0043 -0.0602,0.01399 -0.0771,0.02398 -0.20369,0.03252 -0.2825,0.01905 -0.0721,-0.01233 -0.15958,-0.03787 -0.15958,-0.04659 0,-0.0032 0.0576,-0.05033 0.12787,-0.104703 0.20728,-0.160236 0.35263,-0.324893 0.40875,-0.462986 0.0502,-0.123628 0.0536,-0.151247 0.054,-0.435715 l 3.6e-4,-0.26575 -0.0457,-0.09622 c -0.0433,-0.09103 -0.0457,-0.09993 -0.0442,-0.16505 0.004,-0.199363 0.0755,-0.433517 0.1794,-0.59243 0.0676,-0.103385 0.21119,-0.232069 0.25903,-0.232169 0.0103,-1.9e-5 0.0327,0.0096 0.0499,0.02142 l 0.0313,0.02146 0.0646,-0.05439 c 0.22025,-0.185317 0.54084,-0.301038 0.84128,-0.303665 0.0642,-5.63e-4 0.11683,-0.0021 0.11683,-0.0034 0,-0.0014 -0.0333,-0.06877 -0.0739,-0.149893 -0.0407,-0.08112 -0.0721,-0.149228 -0.07,-0.151347 0.008,-0.0073 0.1762,0.05307 0.25185,0.09006 0.0962,0.04704 0.17574,0.098 0.24144,0.154678 l 0.0516,0.04452 0.043,-0.08903 c 0.0468,-0.09692 0.12355,-0.225596 0.13052,-0.218628 0.009,0.0093 0.0394,0.215005 0.0394,0.269348 3e-5,0.03151 0.003,0.05727 0.006,0.05727 0.003,0 0.0557,-0.02469 0.11683,-0.05488 0.19473,-0.09635 0.36871,-0.126068 0.56293,-0.09616 0.0565,0.0087 0.10456,0.01881 0.10682,0.02247 0.003,0.0036 -0.0236,0.02561 -0.0574,0.04878 -0.0338,0.02317 -0.0795,0.06048 -0.10144,0.08291 l -0.0399,0.04078 0.0353,0.0052 c 0.0194,0.0029 0.058,0.0079 0.0857,0.01123 0.13423,0.01616 0.35713,0.102848 0.5353,0.208158 0.11487,0.06789 0.24845,0.156985 0.25761,0.171814 0.009,0.01493 0.0292,0.0098 0.0589,-0.0152 l 0.0285,-0.02397 0.0346,0.02397 c 0.1132,0.07844 0.26841,0.317692 0.34062,0.525032 0.029,0.08332 0.0292,0.08472 0.0165,0.147357 -0.0114,0.05703 -0.0111,0.06856 0.003,0.117483 0.0607,0.203369 0.0952,0.513648 0.10802,0.970625 0.008,0.258567 0.0113,0.313697 0.028,0.380297 0.0391,0.157093 0.14173,0.321269 0.24612,0.394043 0.0253,0.01764 0.0462,0.03424 0.0464,0.03689 7.1e-4,0.01131 -0.0814,0.05662 -0.12743,0.07004 -0.0646,0.01885 -0.15547,0.01166 -0.25673,-0.02033 -0.0414,-0.01308 -0.0775,-0.0216 -0.0802,-0.0189 -0.008,0.0075 0.0469,0.168353 0.0981,0.290275 0.0535,0.127138 0.19003,0.405292 0.24542,0.499923 0.021,0.03588 0.0728,0.112577 0.11499,0.170455 0.0928,0.127161 0.0957,0.131551 0.0787,0.121472 -0.15076,-0.0896 -0.30549,-0.21166 -0.42753,-0.337241 -0.0517,-0.05316 -0.0939,-0.09363 -0.0939,-0.08993 0,0.0037 0.008,0.04371 0.0179,0.08891 0.042,0.192606 0.14017,0.423618 0.25473,0.599659 0.0345,0.05292 0.066,0.101816 0.0702,0.108656 0.006,0.0095 0.003,0.011 -0.0115,0.0064 -0.0161,-0.0051 -0.008,0.01664 0.0497,0.135959 0.18788,0.387557 0.28946,0.520426 0.46901,0.613494 0.0487,0.02528 0.0746,0.04333 0.0662,0.04621 -0.008,0.0026 -0.0591,0.01795 -0.11455,0.03409 -0.18821,0.0548 -0.22307,0.07832 -0.31401,0.211934 -0.0743,0.109178 -0.11259,0.146419 -0.185,0.180031 -0.0464,0.02155 -0.0646,0.02407 -0.21118,0.02918 -0.0882,0.0031 -0.17167,0.01028 -0.1855,0.01603 -0.0438,0.01819 -0.10757,0.08531 -0.16749,0.176188 -0.0947,0.143668 -0.16307,0.191594 -0.28389,0.199118 -0.0849,0.0053 -0.1646,-0.01417 -0.29537,-0.07206 -0.11175,-0.04947 -0.20476,-0.08389 -0.21067,-0.07797 -0.003,0.0019 0.009,0.02375 0.0239,0.04835 0.0311,0.05043 0.0742,0.159834 0.12347,0.312887 0.0364,0.113151 0.0406,0.149026 0.0196,0.169958 -0.021,0.02093 -0.11265,0.07486 -0.18887,0.111058 l -0.0683,0.03245 0.007,0.0847 c 0.003,0.04659 0.0111,0.191667 0.0162,0.322409 0.005,0.130742 0.0126,0.240553 0.0163,0.244024 0.003,0.0035 0.0228,0.0114 0.0422,0.0176 0.0384,0.01228 0.18356,0.105964 0.21073,0.136004 0.0166,0.01837 0.0164,0.01879 -0.0218,0.03018 -0.0549,0.01644 -0.0855,0.05184 -0.11556,0.133666 -0.0302,0.08214 -0.0332,0.158919 -0.0124,0.321579 0.0115,0.08978 0.0113,0.09523 -0.006,0.110965 -0.0225,0.0212 -0.10231,0.04266 -0.23898,0.06424 -0.23754,0.03753 -0.49437,0.04871 -0.82327,0.03584 z m 0.66438,-0.103142 c 0.13204,-0.01594 0.26571,-0.03892 0.2981,-0.05122 0.0207,-0.0079 0.0219,-0.01184 0.0166,-0.05231 -0.003,-0.02409 -0.007,-0.04522 -0.008,-0.04697 -0.002,-0.0017 -0.0535,0.0093 -0.11555,0.02459 -0.24348,0.05984 -0.50836,0.08961 -0.71315,0.08016 -0.2329,-0.01075 -0.51486,-0.0604 -0.70238,-0.123699 -0.0461,-0.01556 -0.0859,-0.0283 -0.0884,-0.0283 -0.003,0 -0.0247,0.05111 -0.0247,0.06026 0,0.0087 0.11041,0.06223 0.18786,0.09104 0.0964,0.03588 0.13643,0.04158 0.41237,0.05875 0.17642,0.01097 0.60395,0.0038 0.73767,-0.0123 z m -1.73195,-0.11927 c 0.063,-0.0069 0.1542,-0.01792 0.20267,-0.02436 0.0865,-0.01149 0.0883,-0.01224 0.0985,-0.04044 0.015,-0.04145 0.0136,-0.04412 -0.0194,-0.03737 -0.2264,0.04637 -0.63457,0.0382 -0.90219,-0.01808 -0.0308,-0.0064 -0.033,-0.0036 -0.0414,0.05477 -0.003,0.01852 0.0351,0.0335 0.16239,0.06436 0.0302,0.0074 0.0633,0.01543 0.0733,0.01799 0.0297,0.0076 0.30235,-0.0032 0.4261,-0.01688 z m 1.62657,-0.0089 c 0.0756,-0.0128 0.19725,-0.03883 0.27033,-0.05785 l 0.13288,-0.0346 0.003,-0.06873 0.003,-0.06873 -0.0713,-0.0011 c -0.0392,-5.71e-4 -0.0899,-0.006 -0.11259,-0.01217 -0.0641,-0.01732 -0.19115,-0.08559 -0.33787,-0.181602 -0.1357,-0.08882 -0.24316,-0.139389 -0.33322,-0.156819 -0.15595,-0.03018 -0.30927,-0.01577 -0.41782,0.03927 -0.0641,0.0325 -0.17505,0.147108 -0.23278,0.240414 -0.055,0.08897 -0.0895,0.153375 -0.0895,0.167137 0,0.03194 0.36342,0.120394 0.62772,0.152785 0.15073,0.01847 0.38846,0.01078 0.55898,-0.01807 z m -1.47995,-0.129023 c 0.0277,-0.0032 0.069,-0.0094 0.0916,-0.01385 0.0227,-0.0044 0.0565,-0.0105 0.0752,-0.0135 0.032,-0.0052 0.0367,-0.01055 0.0817,-0.09448 0.0263,-0.04896 0.0644,-0.113757 0.0846,-0.143998 0.0523,-0.07816 0.17544,-0.195725 0.24495,-0.233852 l 0.0588,-0.03225 0.003,-0.06397 0.003,-0.06397 -0.0816,-0.03994 c -0.097,-0.04752 -0.17456,-0.05897 -0.23325,-0.03445 -0.0195,0.0081 -0.0402,0.01482 -0.046,0.01482 -0.006,0 -0.0393,-0.02116 -0.0745,-0.04704 -0.0352,-0.02586 -0.0949,-0.06195 -0.13268,-0.08019 -0.0685,-0.03306 -0.069,-0.03315 -0.18785,-0.03238 -0.10743,7.02e-4 -0.12411,0.0031 -0.16968,0.02414 -0.0699,0.03232 -0.15568,0.103495 -0.1555,0.129084 2.6e-4,0.03637 0.0112,0.0415 0.0962,0.04517 0.0452,0.0019 0.10917,0.01019 0.14194,0.0183 0.0328,0.0081 0.0905,0.0193 0.12829,0.02487 0.12037,0.01774 0.31157,0.08917 0.31157,0.116408 0,0.01634 0.002,0.01659 -0.0933,-0.01517 -0.14125,-0.04732 -0.20888,-0.05769 -0.33737,-0.05172 -0.063,0.0029 -0.13105,0.01 -0.15122,0.01567 -0.0202,0.0057 -0.0579,0.01642 -0.084,0.02386 -0.0988,0.02816 -0.19624,0.128209 -0.27174,0.278891 -0.0446,0.08912 -0.09,0.209417 -0.0832,0.220485 0.01,0.01553 0.14513,0.03848 0.3108,0.05263 0.0913,0.0078 0.39308,0.0055 0.47182,-0.0036 z m 1.91389,-0.171711 c 0.10364,-0.05336 0.095,-0.175552 -0.0179,-0.253005 -0.0455,-0.03123 -0.0917,-0.02346 -0.1741,0.02925 -0.1063,0.06801 -0.12384,0.06697 -0.29244,-0.01721 -0.12418,-0.06201 -0.23994,-0.102597 -0.31301,-0.109747 l -0.058,-0.0057 0.0994,0.05118 c 0.0546,0.02815 0.15159,0.08545 0.21534,0.127337 0.2013,0.13224 0.24775,0.157582 0.34045,0.185731 0.0818,0.02486 0.14127,0.02253 0.20027,-0.0079 z m -2.61824,-0.256777 c 0.0169,-0.02646 0.0469,-0.06591 0.0668,-0.08766 0.0426,-0.04657 0.14243,-0.107337 0.19145,-0.116535 0.019,-0.0036 0.0325,-0.0085 0.0301,-0.011 -0.009,-0.0085 -0.13858,0.02532 -0.16946,0.0441 -0.0227,0.01379 -0.0397,0.01736 -0.0641,0.0134 -0.0634,-0.0103 -0.12326,0.04735 -0.12326,0.118734 0,0.03292 0.0213,0.08705 0.0344,0.08705 0.003,0 0.0172,-0.02164 0.0341,-0.04811 z m 2.39258,0.0029 0.0355,-0.02615 -0.0486,-0.02763 c -0.0681,-0.03868 -0.11762,-0.05001 -0.18649,-0.04263 l -0.058,0.0062 -0.0673,-0.06367 c -0.0864,-0.0818 -0.12486,-0.106752 -0.20902,-0.135684 -0.0538,-0.0185 -0.0862,-0.02354 -0.15099,-0.02351 -0.0914,5.6e-5 -0.11808,0.0076 -0.20848,0.05898 l -0.0618,0.03515 v 0.05419 0.05419 h 0.0956 c 0.0526,0 0.10723,-0.0047 0.12142,-0.01034 0.0142,-0.0057 0.0712,-0.0105 0.12659,-0.01069 0.1193,-4.07e-4 0.17257,0.01499 0.35344,0.102155 0.17053,0.08218 0.1842,0.08373 0.25805,0.02942 z m 0.10426,-0.259457 c -0.007,-0.161699 -0.022,-0.411305 -0.0266,-0.415854 -0.002,-0.0012 -0.0492,0.0097 -0.10659,0.02433 -0.0574,0.0146 -0.14597,0.03141 -0.19684,0.03734 -0.12215,0.01426 -0.39225,0.0062 -0.43841,-0.01311 -0.029,-0.01211 -0.0806,-0.06849 -0.0921,-0.100651 -0.003,-0.0059 -0.008,-0.0075 -0.012,-0.0033 -0.008,0.0077 -0.0211,0.291014 -0.0145,0.319404 0.003,0.01315 0.0167,0.01546 0.092,0.01563 0.17564,3.73e-4 0.29745,0.05079 0.42941,0.177748 0.0377,0.03623 0.04,0.03706 0.0974,0.03498 0.0712,-0.0025 0.1385,0.01593 0.21229,0.05845 0.0302,0.01743 0.0567,0.03181 0.0586,0.03196 0.003,1.56e-4 7.2e-4,-0.07498 -0.003,-0.166962 z m -1.00996,-0.09082 0.0408,-0.01981 0.003,-0.165763 c 0.003,-0.09117 0.003,-0.168536 6e-4,-0.171923 -0.003,-0.0086 -0.10628,0.02104 -0.11455,0.03305 -0.003,0.0054 -0.007,0.02261 -0.007,0.03831 -7e-5,0.0157 -0.008,0.03886 -0.0182,0.05147 -0.01,0.01261 -0.0162,0.02475 -0.014,0.02698 0.003,0.0022 0.0105,0.04918 0.0185,0.10432 0.008,0.05514 0.0161,0.105411 0.0183,0.111711 0.006,0.01652 0.0258,0.01418 0.0722,-0.0084 z m -0.15423,-0.01915 c -0.003,-0.01134 -0.009,-0.05154 -0.015,-0.08935 -0.006,-0.0378 -0.0121,-0.07115 -0.0138,-0.07409 -0.002,-0.003 -0.0373,5.11e-4 -0.0791,0.0077 -0.0442,0.0076 -0.14787,0.01367 -0.24776,0.01453 -0.0945,7.82e-4 -0.17179,0.0021 -0.17182,0.0029 -3e-5,7.82e-4 0.0186,0.01052 0.0415,0.02159 0.0228,0.01106 0.0662,0.03831 0.0965,0.06057 0.0473,0.03478 0.0576,0.039 0.0742,0.03014 0.0121,-0.0064 0.0522,-0.0089 0.10741,-0.0064 0.068,0.003 0.10065,0.0093 0.14311,0.02742 0.0695,0.02969 0.0699,0.02972 0.0647,0.005 z m -0.80241,-0.169906 0.0687,-0.0071 -0.0779,-0.02613 c -0.0429,-0.01437 -0.0895,-0.03202 -0.10373,-0.0392 l -0.0258,-0.01306 0.006,0.0441 c 0.009,0.06693 0.009,0.06755 0.0385,0.05746 0.0141,-0.0049 0.0566,-0.01211 0.0943,-0.01603 z m 0.65521,-0.06122 c 0.13313,-0.02376 0.15118,-0.03013 0.15134,-0.05331 2.5e-4,-0.03692 -0.11286,-0.588307 -0.12191,-0.594268 -0.005,-0.0032 -0.0299,-0.0086 -0.0557,-0.01206 -0.0578,-0.0076 -0.0973,-0.0252 -0.15843,-0.07026 -0.0417,-0.03073 -0.0567,-0.036 -0.12829,-0.04488 -0.0446,-0.0055 -0.12369,-0.02013 -0.17579,-0.03244 -0.0521,-0.01231 -0.0967,-0.02238 -0.099,-0.02238 -0.003,0 -0.075,0.142912 -0.16134,0.317582 l -0.15705,0.317582 0.0315,0.02673 c 0.0853,0.07222 0.25171,0.140366 0.40728,0.166766 0.0453,0.0077 0.0928,0.01588 0.10538,0.01817 0.0457,0.0084 0.28154,-0.0029 0.36197,-0.01724 z m 1.03551,-0.100994 c 0.13074,-0.02798 0.25985,-0.07225 0.37676,-0.129155 0.0661,-0.03218 0.12506,-0.06436 0.131,-0.07152 0.009,-0.01026 0.003,-0.03805 -0.0273,-0.130721 -0.0516,-0.159318 -0.0739,-0.210303 -0.13747,-0.315062 -0.0298,-0.04919 -0.0543,-0.09397 -0.0543,-0.09953 0,-0.01245 -0.022,-0.01278 -0.0795,-0.0012 -0.054,0.01084 -0.18457,0.03242 -0.27943,0.04616 -0.0735,0.01065 -0.0795,0.01128 -0.26422,0.02802 -0.063,0.0057 -0.11598,0.01175 -0.11773,0.01342 -0.002,0.0017 0.002,0.02379 0.007,0.04914 0.0219,0.102512 -0.0478,0.281482 -0.11892,0.305204 -0.0136,0.0046 0.0627,0.274205 0.0837,0.295544 0.0129,0.01311 0.0364,0.01961 0.0888,0.02448 0.10167,0.0095 0.31664,0.0014 0.39196,-0.01478 z m -0.71609,-0.08715 c 0.0597,-0.01511 0.11673,-0.02747 0.12661,-0.02747 0.0128,0 0.0166,-0.0047 0.0133,-0.01604 -0.003,-0.0088 -0.0137,-0.04764 -0.0247,-0.08627 l -0.0201,-0.07023 -0.0412,-0.01039 c -0.0893,-0.02248 -0.19452,-0.09453 -0.25478,-0.17446 -0.0145,-0.01925 -0.022,-0.02475 -0.0188,-0.01374 0.003,0.01007 0.022,0.102863 0.0424,0.206185 0.0427,0.216989 0.0435,0.219938 0.0579,0.219906 0.006,-9e-6 0.0597,-0.01239 0.1195,-0.02749 z m -1.09376,-0.390212 c 0.068,-0.138697 0.1248,-0.257118 0.12616,-0.263157 0.003,-0.0092 -0.10125,-0.07054 -0.11876,-0.07054 -0.003,0 -0.0293,0.04021 -0.0581,0.08935 -0.0289,0.04914 -0.0679,0.11409 -0.0867,0.144331 -0.0906,0.145754 -0.14643,0.244896 -0.14195,0.252143 0.007,0.01012 0.14137,0.100767 0.1496,0.10036 0.003,-1.64e-4 0.0618,-0.113781 0.12981,-0.252478 z m -0.36935,0.177178 c 0.0369,-0.0517 0.33297,-0.547123 0.33171,-0.555073 -5.2e-4,-0.0034 -0.0226,-0.02583 -0.049,-0.04981 l -0.048,-0.0436 -0.0919,0.094 c -0.0505,0.0517 -0.11991,0.126992 -0.1542,0.167312 -0.0343,0.04033 -0.10317,0.115286 -0.15305,0.166591 -0.103,0.105969 -0.10187,0.09892 -0.0278,0.173016 0.0415,0.04153 0.11908,0.08623 0.14994,0.08642 0.008,4.6e-5 0.027,-0.01744 0.0423,-0.03886 z m 1.60996,-0.0922 c 0.0414,-0.04398 0.0751,-0.180055 0.0532,-0.214608 -0.006,-0.0085 -0.0152,-0.0059 -0.0388,0.0098 -0.0544,0.0363 -0.10166,0.04935 -0.20347,0.05616 -0.0541,0.0036 -0.0985,0.01005 -0.0985,0.01427 0,0.01777 0.0925,0.10067 0.13829,0.123904 0.0954,0.04842 0.1124,0.04961 0.14929,0.01043 z m -0.11445,-0.245151 c 0.0222,-0.0053 0.0593,-0.02226 0.0825,-0.03785 0.0461,-0.03098 0.11094,-0.08959 0.11094,-0.100352 0,-0.0037 -0.0258,-0.0264 -0.0573,-0.0504 -0.10544,-0.08033 -0.13182,-0.11246 -0.13891,-0.16926 -0.007,-0.05598 0.0101,-0.189876 0.045,-0.351751 l 0.0217,-0.100803 -0.0446,-0.04192 c -0.0657,-0.06189 -0.17303,-0.09003 -0.24255,-0.0636 -0.0389,0.01477 -0.0436,0.04847 -0.0194,0.137924 0.007,0.02284 0.005,0.0236 -0.0835,0.04373 -0.0494,0.01127 -0.12281,0.0338 -0.16309,0.05007 -0.0996,0.04022 -0.10095,0.04342 -0.10056,0.235766 3.5e-4,0.14612 0.008,0.201249 0.0419,0.316484 0.0126,0.04234 0.0674,0.09275 0.12387,0.113863 0.0843,0.03154 0.3238,0.04176 0.42397,0.0181 z m 1.67338,-0.003 c 0.0565,-0.02679 0.0969,-0.06923 0.16398,-0.172326 0.0589,-0.09042 0.10767,-0.137045 0.17766,-0.169687 0.0435,-0.02024 0.0652,-0.02325 0.21141,-0.02909 0.15374,-0.0062 0.16535,-0.0079 0.20437,-0.03076 0.0501,-0.02935 0.0914,-0.07395 0.15286,-0.165051 0.0255,-0.03779 0.0641,-0.08414 0.0858,-0.102998 0.0419,-0.0364 0.15609,-0.09627 0.18369,-0.09627 0.0109,0 -0.0108,-0.02691 -0.0646,-0.08019 -0.10865,-0.107331 -0.17048,-0.20395 -0.31489,-0.492009 l -0.1212,-0.241768 -0.0921,-0.03871 c -0.1328,-0.05582 -0.28317,-0.133637 -0.36268,-0.187681 l -0.069,-0.04689 0.003,0.0903 c 0.003,0.04967 -0.003,0.144811 -0.009,0.211433 -0.014,0.135317 -0.0145,0.186679 -0.003,0.329708 l 0.008,0.09861 -0.0391,0.03709 c -0.0214,0.0204 -0.0623,0.04756 -0.0907,0.06037 -0.0992,0.04466 -0.23029,0.09478 -0.2478,0.09478 -0.013,0 -0.0289,0.02211 -0.0607,0.08477 -0.0236,0.04662 -0.0612,0.111782 -0.0833,0.144803 -0.0222,0.03302 -0.0402,0.06234 -0.0402,0.06513 0,0.0028 0.0247,0.02037 0.055,0.03904 0.0328,0.02025 0.055,0.04031 0.055,0.04972 0,0.0087 -0.0237,0.03567 -0.0528,0.05999 -0.029,0.02431 -0.0873,0.07571 -0.12964,0.114232 -0.0424,0.03852 -0.0856,0.07754 -0.0961,0.08672 -0.0362,0.03155 -0.0571,0.143685 -0.0268,0.143685 0.0312,0 0.1746,0.04876 0.26394,0.08977 0.0975,0.04474 0.19648,0.07346 0.25659,0.07442 0.0207,3.3e-4 0.0567,-0.0089 0.0825,-0.02115 z m -2.29553,-0.114899 c 0,-0.01591 -0.0287,-0.03731 -0.0501,-0.03731 -0.0117,0 -0.0681,-0.01184 -0.12535,-0.02633 -0.15501,-0.03923 -0.27893,-0.102828 -0.41943,-0.215303 -0.0109,-0.0087 -0.0113,-0.0072 -0.003,0.0094 0.028,0.05259 0.16612,0.152865 0.27434,0.199182 0.1043,0.04465 0.32292,0.09225 0.32292,0.07032 z m 0.93222,0.003 c -0.003,-0.0031 -0.0109,-0.0033 -0.0175,-7.1e-4 -0.008,0.0029 -0.005,0.0051 0.006,0.0055 0.01,3.97e-4 0.0151,-0.0018 0.012,-0.0048 z m -0.97162,-0.1646 -0.0123,-0.0727 -0.0223,0.03455 c -0.0122,0.019 -0.0317,0.03701 -0.0432,0.04002 -0.0272,0.0071 -0.12938,-0.01564 -0.14961,-0.03333 -0.009,-0.0075 -0.0329,-0.06529 -0.054,-0.128292 -0.0372,-0.111617 -0.0995,-0.240827 -0.16174,-0.335427 -0.017,-0.02572 -0.0308,-0.05139 -0.0308,-0.05704 0,-0.02097 0.10184,-0.05763 0.19495,-0.07018 0.0435,-0.0059 0.0438,-0.0058 0.0577,0.02758 0.008,0.01841 0.0183,0.05682 0.0235,0.08536 0.0152,0.08302 0.0285,0.08116 0.0223,-0.0031 -0.01,-0.136023 -0.01,-0.140078 0.009,-0.161189 l 0.0179,-0.02013 -0.0942,0.0064 c -0.10118,0.0069 -0.23018,0.04088 -0.31029,0.08197 -0.0809,0.0415 -0.0779,0.03517 -0.0635,0.13425 0.007,0.04787 0.018,0.127727 0.0245,0.177436 0.0114,0.08711 0.0131,0.09168 0.0485,0.126362 0.082,0.08041 0.25413,0.175749 0.38883,0.215401 0.0681,0.02005 0.16132,0.03723 0.16448,0.0303 0.002,-0.003 -0.003,-0.03818 -0.01,-0.07817 z m 1.02332,0.03339 c 0.007,-0.03778 0.0324,-0.06484 0.063,-0.06484 0.0151,0 0.0153,0.0023 0.003,0.0252 -0.007,0.01386 -0.0159,0.0392 -0.0196,0.05632 l -0.007,0.03112 0.0399,-0.0064 c 0.0219,-0.0036 0.0915,-0.01239 0.15452,-0.01969 0.17844,-0.02068 0.3024,-0.04463 0.3024,-0.05842 0,-0.01114 -0.12395,-0.06415 -0.17732,-0.07582 -0.0755,-0.01652 -0.0806,-0.0302 -0.0168,-0.04456 0.043,-0.0097 0.10925,0.01004 0.19871,0.05922 0.0467,0.02568 0.0594,0.02915 0.0749,0.02053 0.0263,-0.01459 0.16791,-0.135575 0.16791,-0.143424 0,-0.0036 -0.0232,-0.01378 -0.0516,-0.0227 -0.0667,-0.02096 -0.13755,-0.01522 -0.28137,0.02278 -0.0596,0.01576 -0.12138,0.02738 -0.13718,0.02583 -0.0337,-0.0033 -0.0409,-0.0154 -0.0754,-0.126525 -0.0316,-0.102119 -0.0873,-0.199039 -0.1527,-0.26612 -0.0707,-0.07247 -0.084,-0.07479 -0.16214,-0.02835 -0.0696,0.04134 -0.068,0.03809 -0.0794,0.161596 -0.003,0.03528 -0.009,0.08158 -0.013,0.102878 -0.003,0.02131 -0.008,0.07829 -0.009,0.126633 -0.002,0.08402 -5.2e-4,0.08985 0.0265,0.132008 0.0326,0.05083 0.1248,0.141328 0.13655,0.13406 0.004,-0.0027 0.0106,-0.02127 0.0138,-0.04127 z m -0.16854,-0.02524 c -0.0482,-0.05487 -0.058,-0.08807 -0.0567,-0.190816 0.002,-0.08691 0.007,-0.134142 0.0293,-0.269184 0.006,-0.03213 0.008,-0.06077 0.005,-0.06364 -0.003,-0.0029 -0.013,0.0028 -0.0227,0.0126 -0.0201,0.02054 -0.0657,0.269507 -0.0678,0.370813 -0.002,0.05956 -0.002,0.05988 0.0391,0.09622 0.0412,0.03725 0.0932,0.0777 0.0999,0.0777 0.003,0 -0.01,-0.01517 -0.0258,-0.0337 z m -0.91246,-0.0969 c 0.0385,-0.05179 0.0507,-0.08859 0.0509,-0.153483 l 9e-5,-0.04124 -0.0432,0.06644 c -0.0659,0.101473 -0.0703,0.09323 -0.0307,-0.05727 l 0.0266,-0.100801 -0.0381,-0.0504 c -0.0343,-0.04542 -0.0385,-0.04825 -0.0413,-0.0286 -0.002,0.01199 -0.01,0.07969 -0.0183,0.150445 -0.008,0.07096 -0.0197,0.130123 -0.0252,0.131947 -0.007,0.002 -0.0143,-0.02769 -0.0214,-0.07714 -0.012,-0.08461 -0.0415,-0.239584 -0.0568,-0.298547 -0.007,-0.02678 -0.0126,-0.03368 -0.0247,-0.02986 -0.009,0.0027 -0.028,0.0064 -0.043,0.0081 -0.0303,0.0036 -0.0961,0.02377 -0.0961,0.02957 0,0.002 0.0151,0.02723 0.0335,0.05601 0.0496,0.07761 0.12087,0.231487 0.15337,0.331378 0.0283,0.08698 0.0291,0.08818 0.0652,0.09907 0.0621,0.01871 0.0707,0.01589 0.10905,-0.03568 z m -1.63057,0.0092 c 0.0267,-0.02328 0.0782,-0.142229 0.0782,-0.180652 0,-0.02607 -0.0791,-0.317596 -0.12559,-0.462912 l -0.0263,-0.08229 -0.0396,-0.0068 c -0.0218,-0.0037 -0.0462,-0.01205 -0.0544,-0.01852 -0.008,-0.0064 -0.006,-8.2e-5 0.005,0.0142 0.011,0.01428 0.029,0.04933 0.04,0.07789 0.0203,0.05287 0.0255,0.103347 0.0334,0.327584 0.003,0.109477 0.003,0.111031 -0.0209,0.140149 -0.0273,0.0324 -0.0845,0.06529 -0.11373,0.06529 -0.0103,0 -0.0187,0.0033 -0.0187,0.0072 0,0.01511 0.089,0.09319 0.13195,0.11579 0.0551,0.029 0.08,0.02968 0.1106,0.003 z m 3.16178,-0.163081 c 0.0977,-0.02874 0.29161,-0.03205 0.34617,-0.0059 0.0364,0.01748 0.0657,0.01449 0.0741,-0.0076 0.006,-0.0144 -0.054,-0.03471 -0.13244,-0.04523 -0.0384,-0.0051 -0.16673,0.008 -0.30623,0.03151 -0.0302,0.0051 -0.0577,0.0093 -0.0611,0.0093 -0.003,2.7e-5 -0.009,-0.01748 -0.0123,-0.03889 -0.009,-0.05601 -0.0413,-0.122875 -0.0908,-0.188046 -0.0503,-0.06617 -0.16381,-0.185378 -0.17649,-0.185378 -0.005,0 -0.0167,0.0062 -0.0265,0.01375 -0.0174,0.01346 -0.0173,0.01415 0.005,0.03265 0.10874,0.08968 0.16085,0.16489 0.20912,0.301827 0.0421,0.119523 0.0374,0.11216 0.0694,0.107636 0.0157,-0.0022 0.0615,-0.01373 0.10178,-0.02558 z m -3.40078,-0.02742 c 0.0792,-0.02448 0.092,-0.04631 0.0861,-0.147795 -0.003,-0.05209 -0.009,-0.07659 -0.0208,-0.09002 -0.0161,-0.01786 -0.0161,-0.01947 8e-5,-0.04969 0.0152,-0.0282 0.0157,-0.03645 0.005,-0.08475 -0.0151,-0.06783 -0.0479,-0.133263 -0.0793,-0.157917 -0.0226,-0.01779 -0.0236,-0.02115 -0.0127,-0.0472 0.0152,-0.03667 0.003,-0.07877 -0.0448,-0.152548 -0.0541,-0.0837 -0.0883,-0.08887 -0.22522,-0.03406 -0.051,0.02044 -0.0605,0.02796 -0.0695,0.05538 -0.0126,0.03821 0.003,0.139029 0.0253,0.174585 0.0143,0.02179 0.0139,0.02343 -0.0116,0.0437 l -0.0264,0.02106 0.0121,0.07214 c 0.0164,0.09838 0.0299,0.126531 0.0737,0.154171 0.0205,0.01297 0.0374,0.02576 0.0374,0.02842 0,0.0026 -0.009,0.01678 -0.0196,0.03137 -0.0366,0.04947 -0.003,0.143042 0.0654,0.182794 0.0426,0.02473 0.12578,0.02487 0.20517,3.55e-4 z m 3.48325,-0.101684 c 0.0353,-0.0059 0.11144,-0.01146 0.16924,-0.01227 l 0.10508,-0.0015 0.03,-0.04063 c 0.0386,-0.05228 0.0537,-0.07915 0.12733,-0.225948 0.0524,-0.104449 0.0599,-0.125639 0.0547,-0.153494 -0.009,-0.04843 -0.0205,-0.03905 -0.0275,0.02267 -0.008,0.06802 -0.003,0.06757 -0.17475,0.01755 -0.15998,-0.04665 -0.17385,-0.05189 -0.19276,-0.07279 -0.0174,-0.01914 -0.0588,-0.153785 -0.0604,-0.196289 -7.1e-4,-0.02006 -0.003,-0.01437 -0.01,0.02015 -0.007,0.03398 -0.013,0.04811 -0.0232,0.04811 -0.0179,0 -0.17531,-0.09997 -0.23285,-0.147881 -0.0234,-0.01947 -0.0451,-0.03539 -0.0481,-0.03539 -0.0133,0 -4.3e-4,0.09293 0.045,0.325315 0.005,0.02622 0.003,0.02934 -0.0633,0.06732 l -0.0686,0.03983 0.0686,0.06955 c 0.0875,0.08867 0.14147,0.160571 0.17724,0.23629 0.022,0.04658 0.0319,0.05894 0.0441,0.05512 0.009,-0.0027 0.0446,-0.0098 0.08,-0.01572 z m -3.07759,-0.05281 c -0.003,-0.02319 -0.0102,-0.07928 -0.0159,-0.124641 -0.0126,-0.09848 -0.007,-0.19518 0.0205,-0.354864 0.0175,-0.101967 0.0186,-0.119576 0.008,-0.126767 -0.0226,-0.01431 -0.0242,-0.01062 -0.0293,0.06697 -0.003,0.04158 -0.008,0.08297 -0.0116,0.09198 -0.008,0.02106 -0.0445,0.03932 -0.0937,0.04749 -0.0214,0.0036 -0.039,0.01 -0.039,0.01431 0,0.0043 0.0119,0.04415 0.0266,0.08854 0.0239,0.0725 0.0408,0.129886 0.0873,0.297485 0.0126,0.04549 0.0168,0.05121 0.0338,0.04675 0.0174,-0.0046 0.0188,-0.0097 0.0141,-0.04725 z m 0.42852,0.03555 c 0.0601,-0.005 0.11119,-0.01101 0.11358,-0.01339 0.003,-0.0025 -0.008,-0.03227 -0.0232,-0.06641 -0.043,-0.09676 -0.10324,-0.331601 -0.11693,-0.455903 -0.0119,-0.107504 -0.016,-0.133052 -0.0214,-0.132862 -0.003,1.21e-4 -0.0368,0.0084 -0.0743,0.01832 -0.0374,0.01 -0.0755,0.01811 -0.0844,0.01811 -0.0205,0 -0.0276,0.02728 -0.054,0.206185 -0.0219,0.148722 -0.021,0.207686 0.005,0.345435 0.011,0.05777 0.0193,0.08079 0.0302,0.0837 0.0273,0.0072 0.11403,0.006 0.22517,-0.0032 z m -0.30179,-0.02503 c -0.003,-0.01386 -0.008,-0.04967 -0.0135,-0.07957 -0.0149,-0.0878 -0.0113,-0.249968 0.008,-0.345532 0.009,-0.04717 0.0197,-0.10294 0.0229,-0.123922 0.006,-0.03791 0.006,-0.03811 -0.0192,-0.03148 -0.0217,0.0058 -0.0264,0.01376 -0.0362,0.06106 -0.007,0.02992 -0.0161,0.106883 -0.0219,0.171038 -0.009,0.09927 -0.008,0.133397 0.004,0.229094 0.0185,0.137795 0.0205,0.144524 0.0423,0.144524 0.014,0 0.0166,-0.0051 0.0132,-0.0252 z m 0.52704,-0.0064 c 0,-0.0022 -0.01,-0.03213 -0.0221,-0.06644 -0.0562,-0.158591 -0.10505,-0.358963 -0.12521,-0.51355 -0.011,-0.08462 -0.011,-0.08462 -0.035,-0.07892 -0.038,0.009 -0.0391,0.01131 -0.0329,0.06591 0.0166,0.147296 0.0658,0.354186 0.11038,0.464182 0.0495,0.122098 0.0562,0.132875 0.0821,0.132875 0.0125,0 0.0227,-0.0019 0.0227,-0.0041 z m 0.90349,-0.03621 c 0.0316,-0.02974 0.0639,-0.04221 0.10948,-0.04221 0.0115,0 0.0533,-0.01241 0.0928,-0.02758 l 0.0718,-0.02758 0.0183,-0.05701 c 0.015,-0.04653 0.0257,-0.06252 0.058,-0.08697 0.0357,-0.02701 0.0457,-0.02996 0.10197,-0.02996 0.0342,0 0.0762,0.0058 0.0932,0.01279 0.0333,0.01381 0.12712,0.01746 0.12712,0.005 0,-0.02156 -0.0482,-0.15358 -0.063,-0.172667 -0.0302,-0.03893 -0.0494,-0.01628 -0.0691,0.08179 -0.008,0.03634 -0.0386,0.06396 -0.0726,0.06396 -0.0359,0 -0.0518,-0.0139 -0.052,-0.04536 -2.6e-4,-0.04712 -0.009,-0.04723 -0.11462,-0.0015 -0.0553,0.02391 -0.14093,0.05939 -0.19009,0.07886 l -0.0894,0.03539 0.0175,0.01904 c 0.01,0.01047 0.0202,0.03214 0.0236,0.04818 0.008,0.03457 -0.011,0.04875 -0.0629,0.04875 -0.0261,0 -0.0411,-0.0082 -0.0756,-0.04124 -0.0474,-0.04544 -0.0511,-0.04699 -0.0664,-0.02845 -0.0169,0.02038 0.074,0.19798 0.10141,0.19798 0.004,0 0.0225,-0.014 0.0408,-0.03111 z m -0.75,0.0026 c 0.0242,-0.009 0.0236,-3.63e-4 0.008,-0.105856 -0.0119,-0.07866 -0.0157,-0.0876 -0.0585,-0.142073 -0.0485,-0.06172 -0.15751,-0.250265 -0.15751,-0.272434 0,-0.0073 -0.003,-0.01099 -0.005,-0.0083 -0.016,0.01596 0.0816,0.380483 0.13758,0.51412 0.0154,0.03679 0.016,0.0369 0.0758,0.01453 z m 1.67927,-0.234994 c 0.068,-0.0376 0.12438,-0.06894 0.12519,-0.06967 7.1e-4,-7.11e-4 -0.0213,-0.03638 -0.0494,-0.07922 -0.0708,-0.108348 -0.22089,-0.255541 -0.30234,-0.296494 -0.0792,-0.03984 -0.153,-0.05507 -0.23552,-0.04865 -0.0795,0.0062 -0.16299,0.02362 -0.15925,0.03323 0.002,0.0039 0.0231,0.05484 0.0478,0.113168 0.038,0.08973 0.0491,0.107792 0.0721,0.11731 0.015,0.0062 0.0321,0.02314 0.0383,0.03779 l 0.0112,0.02654 0.0156,-0.04073 c 0.02,-0.05233 0.0411,-0.07081 0.088,-0.0771 0.0359,-0.0048 0.04,-0.0029 0.0788,0.03885 0.0325,0.03491 0.0455,0.05915 0.0632,0.118107 0.0335,0.111622 0.0364,0.137511 0.0197,0.171264 -0.0109,0.0217 -0.012,0.03254 -0.004,0.0415 0.0117,0.01408 0.006,0.01689 0.1915,-0.08592 z m -1.51061,0.03448 c 0.12317,-0.05889 0.19887,-0.07442 0.372,-0.07634 0.0819,-9.32e-4 0.14891,-0.004 0.14891,-0.0068 0,-0.0029 -0.006,-0.01312 -0.013,-0.02291 -0.012,-0.01629 -0.0245,-0.01772 -0.14891,-0.01706 -0.1415,7.82e-4 -0.23676,0.01774 -0.33033,0.05887 -0.0557,0.02446 -0.12172,0.07194 -0.12172,0.08746 0,0.01931 0.008,0.01721 0.093,-0.02326 z m -0.0381,-0.124585 c 0.0202,-0.01683 0.077,-0.03721 0.16495,-0.0592 0.0589,-0.01472 0.1098,-0.01985 0.20845,-0.02098 0.12979,-0.0015 0.14014,-0.0043 0.12187,-0.03322 -0.007,-0.0114 -0.0114,-0.01073 -0.0287,0.0046 -0.0136,0.01211 -0.0214,0.01442 -0.0241,0.0071 -0.0133,-0.03798 -0.094,-0.14001 -0.17375,-0.219748 -0.08,-0.07999 -0.10527,-0.09912 -0.1787,-0.135285 -0.13601,-0.067 -0.19955,-0.07022 -0.28982,-0.01467 -0.0448,0.02753 -0.10267,0.09686 -0.10267,0.122878 0,0.04933 0.0766,0.216197 0.14851,0.323553 l 0.0564,0.08418 0.0419,-0.02387 c 0.023,-0.01313 0.048,-0.02902 0.0557,-0.03531 z m 0.71611,0.0043 c 0.0371,-0.01568 0.0686,-0.02966 0.0702,-0.03104 0.002,-0.0014 -0.0119,-0.0447 -0.0298,-0.09626 -0.0856,-0.245845 -0.12385,-0.448682 -0.13069,-0.692547 -0.006,-0.201514 0.004,-0.310308 0.0441,-0.485102 0.0236,-0.102983 0.0268,-0.134275 0.0246,-0.229095 l -0.003,-0.109821 -0.0494,0.09622 c -0.057,0.111075 -0.0939,0.212343 -0.12485,0.34297 -0.0222,0.0934 -0.024,0.103973 -0.041,0.243512 -0.0199,0.162282 -0.0108,0.454153 0.0186,0.595646 0.023,0.110497 0.0981,0.344112 0.12459,0.386899 0.008,0.0123 0.0268,0.008 0.0963,-0.02137 z m 2.13384,-0.04092 c 0.0886,-0.03839 0.12828,-0.06528 0.12828,-0.08708 0,-0.01874 -8e-5,-0.01875 -0.0252,-0.0011 -0.0415,0.02921 -0.13342,0.07434 -0.16377,0.08041 l -0.0284,0.0057 -0.0147,-0.09482 c -0.008,-0.05214 -0.0196,-0.157622 -0.0257,-0.234384 -0.01,-0.120872 -0.0128,-0.137227 -0.0234,-0.122102 -0.0184,0.02627 -0.0174,0.285674 0.002,0.383753 0.008,0.04194 0.0186,0.08636 0.0232,0.0987 0.01,0.02516 -0.005,0.02844 0.12797,-0.02906 z m -1.07383,0.0055 0.0444,-0.02734 -0.0119,-0.05742 c -0.007,-0.03158 -0.0183,-0.09998 -0.026,-0.151991 -0.008,-0.05484 -0.0205,-0.102962 -0.0294,-0.114547 -0.0321,-0.04189 -0.15239,-0.140917 -0.22282,-0.183479 -0.0403,-0.02441 -0.1136,-0.05903 -0.16271,-0.07696 -0.0795,-0.02899 -0.10178,-0.03307 -0.20233,-0.03695 -0.1481,-0.0057 -0.32225,0.02004 -0.32225,0.04764 0,0.01352 0.0389,0.151008 0.0537,0.189828 l 0.009,0.0242 0.0624,-0.01316 c 0.0755,-0.0159 0.20142,-0.01753 0.26406,-0.0034 0.15166,0.03415 0.33294,0.183195 0.44629,0.366918 0.0217,0.03512 0.0424,0.0639 0.0461,0.06394 0.003,4.6e-5 0.0267,-0.01222 0.0512,-0.02726 z m 0.75644,-0.103243 c 0.009,-0.04158 0.0247,-0.09597 0.0341,-0.120874 0.009,-0.0249 0.0152,-0.04721 0.0129,-0.04955 -0.006,-0.0055 -0.0594,0.113062 -0.0594,0.130741 0,0.02335 -0.017,0.02542 -0.0839,0.0102 -0.11447,-0.02604 -0.12314,-0.03195 -0.12994,-0.08859 -0.0104,-0.08679 -0.007,-0.279078 0.007,-0.348471 0.008,-0.03698 0.0259,-0.104357 0.0415,-0.149718 0.0291,-0.08484 0.0581,-0.197216 0.0524,-0.202951 -0.003,-0.0018 -0.0244,0.02873 -0.0502,0.06778 -0.0258,0.03906 -0.0619,0.08752 -0.0804,0.107675 -0.0709,0.07781 -0.14805,0.215708 -0.18322,0.327606 -0.0119,0.03786 -0.0211,0.05269 -0.0327,0.05269 -0.0171,0 -0.12719,-0.07647 -0.18445,-0.128144 -0.0213,-0.01927 -0.0344,-0.03925 -0.0344,-0.05277 0,-0.01217 -0.004,-0.01926 -0.009,-0.0161 -0.005,0.0031 -0.009,0.02317 -0.009,0.04456 0,0.03216 0.005,0.04364 0.0297,0.06627 0.0576,0.05289 0.20811,0.159791 0.22433,0.159262 0.003,-1.3e-4 0.0189,-0.03621 0.0333,-0.08019 0.0341,-0.103646 0.16291,-0.363133 0.18218,-0.366854 0.01,-0.0019 0.0135,0.0025 0.011,0.01374 -0.0624,0.286664 -0.0704,0.425859 -0.0326,0.55962 0.0118,0.04163 0.0254,0.07818 0.0303,0.08121 0.0128,0.0079 0.18332,0.05733 0.19986,0.05793 0.01,3.64e-4 0.0186,-0.02067 0.0308,-0.0751 z m -1.59881,0.04285 0.036,-0.01443 -0.032,-0.07033 c -0.0176,-0.03868 -0.0363,-0.07814 -0.0413,-0.08767 -0.005,-0.0095 -0.0253,-0.0623 -0.0447,-0.117276 -0.0196,-0.05497 -0.0378,-0.103712 -0.0407,-0.108318 -0.0176,-0.02856 -0.069,-0.309438 -0.0913,-0.499465 -0.008,-0.07049 -0.0169,-0.132295 -0.0191,-0.137335 -0.003,-0.0051 -0.003,0.06484 7e-4,0.155308 0.005,0.170326 0.0264,0.349849 0.0595,0.499277 0.0225,0.101927 0.11858,0.394669 0.12947,0.394669 0.004,0 0.0237,-0.0064 0.0436,-0.01444 z m -1.96152,-0.02603 c 0.0247,-0.02473 0.0209,-0.159569 -0.007,-0.23182 -0.0193,-0.05083 -0.0262,-0.05912 -0.0637,-0.07729 -0.0814,-0.03941 -0.18671,-0.02956 -0.2242,0.02098 -0.0464,0.0626 0.0129,0.251355 0.0934,0.297349 0.0333,0.019 0.17931,0.01229 0.20082,-0.0092 z m 3.91865,-0.03855 c 0.0784,-0.05171 0.0756,-0.04737 0.0708,-0.112785 -0.003,-0.03241 0.002,-0.114885 0.008,-0.183275 0.0263,-0.265538 0.009,-0.417008 -0.0649,-0.564209 -0.033,-0.06586 -0.1124,-0.171387 -0.0976,-0.129689 0.0341,0.09565 0.0292,0.312246 -0.01,0.44584 -0.0236,0.08074 -0.0254,0.09835 -0.0248,0.242841 6.1e-4,0.134462 0.0131,0.282619 0.0281,0.336761 0.005,0.01841 0.013,0.01531 0.09,-0.03548 z m -2.41755,-0.03324 c -0.0319,-0.123583 -0.0534,-0.229427 -0.0626,-0.308336 l -0.0112,-0.09528 -0.0555,-0.0409 c -0.11213,-0.08269 -0.34257,-0.183385 -0.45098,-0.19705 -0.0375,-0.0047 -0.0388,-0.004 -0.0766,0.0469 -0.0745,0.100192 -0.12816,0.228943 -0.12816,0.307058 v 0.04629 l 0.039,-0.0376 c 0.0961,-0.09279 0.19981,-0.110578 0.33892,-0.05812 0.10943,0.04126 0.24589,0.1543 0.34148,0.282888 0.056,0.07531 0.0751,0.09108 0.0655,0.05415 z m 2.015,-0.06873 c 0.0253,-0.06629 0.10049,-0.188958 0.18421,-0.300482 0.0628,-0.08361 0.0933,-0.187698 0.1013,-0.344922 0.007,-0.126374 -0.005,-0.196096 -0.0451,-0.284789 -0.0231,-0.05069 -0.0359,-0.06663 -0.0703,-0.08785 -0.0664,-0.04083 -0.19239,-0.07444 -0.27997,-0.07467 l -0.0271,-6.9e-5 0.0335,0.03437 c 0.0416,0.04273 0.0666,0.09828 0.0807,0.179868 0.0184,0.106163 -4.3e-4,0.222829 -0.0713,0.440978 l -0.0417,0.128293 -7.2e-4,0.153035 c -0.002,0.166362 -5.1e-4,0.168347 0.0521,0.187619 0.0553,0.02026 0.0667,0.01607 0.0847,-0.03138 z m -4.14683,-0.0557 c -0.007,-0.002 -0.0179,0.0033 -0.0262,0.01176 -0.0142,0.01448 -0.0135,0.01471 0.0111,0.0037 0.0144,-0.0064 0.0213,-0.01343 0.0152,-0.01546 z m -0.078,-0.04224 c 0.0183,-0.02266 0.0504,-0.03265 0.10469,-0.03265 0.0656,0 0.24833,-0.04847 0.25976,-0.06891 0.0219,-0.03911 0.13716,-0.06623 0.3025,-0.07118 l 0.0346,-0.0011 -0.006,-0.0417 c -0.008,-0.05878 -0.0285,-0.13021 -0.0436,-0.150857 -0.0201,-0.02743 -0.0396,-0.01182 -0.062,0.04947 -0.0245,0.06705 -0.0554,0.09567 -0.0949,0.08777 -0.0336,-0.0068 -0.0415,-0.01856 -0.0417,-0.06243 -7e-5,-0.0189 -0.002,-0.03437 -0.003,-0.03437 -0.003,0 -0.0812,0.02215 -0.1764,0.04922 -0.0952,0.02707 -0.1846,0.05192 -0.19863,0.05524 -0.0242,0.0057 -0.0248,0.007 -0.0114,0.02613 0.008,0.01105 0.0141,0.0355 0.0141,0.0543 0,0.0316 -0.003,0.03464 -0.031,0.04001 -0.0413,0.0077 -0.0817,-0.01391 -0.11233,-0.06022 -0.0267,-0.04038 -0.0293,-0.0416 -0.053,-0.02436 -0.0157,0.01148 -0.0153,0.01486 0.008,0.07174 0.0131,0.03284 0.0239,0.06324 0.0239,0.06757 0,0.0043 0.009,0.02147 0.0206,0.03808 0.0212,0.03102 0.0456,0.03401 0.0664,0.0081 z m 0.33449,0.01317 c 0,-0.0051 -0.003,-0.0092 -0.004,-0.0092 -0.003,0 -0.007,0.0042 -0.01,0.0092 -0.003,0.0051 -0.002,0.0092 0.004,0.0092 0.006,0 0.01,-0.0042 0.01,-0.0092 z m 3.12393,-0.158753 c -0.0836,-0.07448 -0.14742,-0.117726 -0.23905,-0.162052 -0.12446,-0.06021 -0.21387,-0.08241 -0.33195,-0.0824 -0.10171,2e-6 -0.30448,0.02931 -0.32055,0.04633 -0.008,0.0081 -0.003,0.0097 0.0174,0.0063 0.1931,-0.03186 0.23598,-0.03604 0.32531,-0.03164 0.10498,0.0052 0.20742,0.03237 0.30693,0.08152 0.0784,0.03869 0.19547,0.118776 0.2382,0.16289 0.022,0.02272 0.038,0.03321 0.0404,0.02637 0.003,-0.0063 -0.0143,-0.02751 -0.0365,-0.04725 z m 0.34715,-0.04972 c 0.0408,-0.09962 0.10082,-0.19842 0.16229,-0.26722 0.0887,-0.09926 0.15202,-0.208149 0.17007,-0.292279 0.009,-0.04019 0.008,-0.05209 -0.008,-0.08654 -0.0137,-0.03107 -0.0645,-0.107062 -0.0898,-0.134145 -0.006,-0.0059 -0.0886,0.01904 -0.12755,0.03839 -0.0588,0.02921 -0.0929,0.05929 -0.14098,0.124219 -0.0492,0.0666 -0.0975,0.160136 -0.12923,0.250324 -0.0155,0.04417 -0.0215,0.0867 -0.0252,0.178684 -0.003,0.06639 -0.003,0.130917 7.1e-4,0.143389 0.003,0.01247 0.0191,0.03105 0.0355,0.04128 0.0164,0.01023 0.048,0.03128 0.0702,0.04676 0.0222,0.01549 0.043,0.02816 0.0463,0.02816 0.003,0 0.0191,-0.03196 0.0351,-0.07102 z m -0.27699,-0.302635 c 0.0134,-0.04901 0.0265,-0.0968 0.0292,-0.106198 0.004,-0.01341 0.002,-0.01599 -0.0124,-0.01195 -0.0236,0.0069 -0.2698,0.0414 -0.57178,0.08 -0.0675,0.0086 -0.38832,0.03609 -0.42162,0.03609 -0.0147,0 -0.0158,0.0039 -0.009,0.02874 0.004,0.01581 0.0103,0.03079 0.0128,0.03329 0.003,0.0025 0.0426,-0.0025 0.0892,-0.01094 0.32664,-0.05976 0.56575,-0.0024 0.81399,0.195442 l 0.0229,0.01826 0.011,-0.08681 c 0.007,-0.04774 0.0219,-0.126909 0.0353,-0.175924 z m -3.39628,0.189489 c 0.0381,-0.01056 0.0721,-0.02191 0.0754,-0.0252 0.003,-0.0033 -0.003,-0.03691 -0.0115,-0.07471 -0.0285,-0.1112 -0.0551,-0.28908 -0.0624,-0.416952 -0.0177,-0.311135 0.0173,-0.563254 0.11332,-0.815577 0.0228,-0.0599 0.0567,-0.266509 0.0479,-0.292003 -0.004,-0.01275 -0.0979,0.130337 -0.13936,0.213209 -0.0901,0.180061 -0.16029,0.416867 -0.18373,0.619458 -0.003,0.03024 -0.008,0.06322 -0.0103,0.07331 -0.009,0.04073 -0.0103,0.279644 -0.003,0.348225 0.0154,0.135843 0.0448,0.279145 0.0776,0.378006 0.005,0.0154 0.0147,0.01462 0.0954,-0.0078 z m 5.13804,-0.0059 c -0.007,-0.01386 -0.0305,-0.06438 -0.0536,-0.112256 -0.0815,-0.169725 -0.14143,-0.375114 -0.16708,-0.572356 -0.0275,-0.210981 -0.0169,-0.232146 0.0591,-0.1194 0.0499,0.07393 0.16291,0.211619 0.21053,0.256476 0.0267,0.02514 0.0236,0.01634 -0.0358,-0.103008 -0.0357,-0.07177 -0.065,-0.132577 -0.065,-0.135116 0,-0.0025 -0.0183,-0.04484 -0.0407,-0.09401 -0.10533,-0.23174 -0.20378,-0.533839 -0.17396,-0.533839 0.003,0 0.0624,0.02285 0.13225,0.05078 0.0916,0.03664 0.14635,0.05295 0.19667,0.0586 0.0629,0.007 0.1056,0.0049 0.1056,-0.0053 0,-0.002 -0.0218,-0.02943 -0.0483,-0.06078 -0.0716,-0.08441 -0.11238,-0.157313 -0.14768,-0.263975 -0.0409,-0.123678 -0.0493,-0.203616 -0.0557,-0.528933 -0.007,-0.341439 -0.0324,-0.597135 -0.0814,-0.808189 l -0.0117,-0.0504 -0.0302,0.05916 c -0.0368,0.0717 -0.0686,0.114216 -0.1458,0.194272 l -0.0588,0.06099 0.0335,0.0551 c 0.0184,0.03031 0.0452,0.06755 0.0593,0.08275 0.0249,0.02663 0.0255,0.02951 0.0166,0.07863 -0.005,0.02804 -0.012,0.05099 -0.0154,0.05099 -0.003,0 -0.0109,-0.01594 -0.0168,-0.03541 -0.0101,-0.03372 -0.0456,-0.08845 -0.0527,-0.08131 -0.005,0.0051 -0.0391,0.255338 -0.0593,0.437461 -0.0201,0.180761 -0.0333,0.442306 -0.0321,0.639174 6e-4,0.112142 -0.002,0.203895 -0.005,0.203895 -0.003,0 -0.0102,-0.01134 -0.0153,-0.0252 -0.0297,-0.08042 -0.0492,-0.143933 -0.0651,-0.21259 -0.0144,-0.06213 -0.0157,-0.07933 -0.007,-0.08706 0.0213,-0.01766 0.0792,-0.358696 0.10624,-0.625921 0.006,-0.05672 0.0114,-0.18119 0.0125,-0.276609 0.003,-0.155325 6.1e-4,-0.172557 -0.0122,-0.164579 -0.008,0.0049 -0.0363,0.02238 -0.0631,0.03883 l -0.0487,0.02992 -0.003,0.210281 c -0.004,0.373044 -0.0438,0.499247 -0.0546,0.174803 -0.0129,-0.386835 -0.0739,-0.592436 -0.25523,-0.860268 -0.0885,-0.130707 -0.17976,-0.217978 -0.31461,-0.300946 -0.0907,-0.0558 -0.11584,-0.08166 -0.0794,-0.08166 0.0249,0 0.23165,0.104548 0.28067,0.14197 0.0298,0.02276 0.0487,0.03121 0.0612,0.02727 0.0308,-0.0098 0.15895,-0.142895 0.20709,-0.215056 0.0252,-0.0378 0.0586,-0.10378 0.0742,-0.146621 0.0456,-0.125446 0.0457,-0.120187 -0.003,-0.159216 -0.12455,-0.102055 -0.42684,-0.26349 -0.59187,-0.316073 -0.12212,-0.03891 -0.207,-0.05058 -0.31844,-0.04378 -0.0723,0.0044 -0.0939,0.003 -0.0939,-0.0058 0,-0.01888 0.0583,-0.09921 0.11356,-0.156595 l 0.0518,-0.05371 -0.10259,0.0035 c -0.0696,0.0025 -0.10377,0.0071 -0.1063,0.01465 -0.003,0.0061 -0.0246,0.02163 -0.0501,0.03446 -0.14498,0.07282 -0.32485,0.219647 -0.4137,0.337709 -0.0284,0.0377 -0.0516,0.07065 -0.0516,0.07322 0,0.0025 0.0381,-0.01338 0.0848,-0.03544 0.0926,-0.04382 0.23694,-0.08159 0.34365,-0.08992 0.0695,-0.0054 0.0862,0.0034 0.0382,0.02012 -0.0809,0.02819 -0.20311,0.133598 -0.28147,0.242714 l -0.0298,0.04149 0.0667,-0.03075 c 0.10395,-0.04796 0.17018,-0.06721 0.25486,-0.07408 0.10191,-0.0083 0.28986,0.0099 0.35512,0.03429 0.0619,0.0232 0.12305,0.07584 0.11921,0.102778 -0.003,0.02093 -0.003,0.02091 -0.18602,0.06887 -0.26091,0.06833 -0.52806,0.151993 -0.60481,0.189388 -0.0252,0.01227 -0.0376,0.01964 -0.0275,0.01638 0.0739,-0.02399 0.20811,-0.05082 0.29016,-0.05798 0.21383,-0.01867 0.40565,0.03868 0.5277,0.157783 0.0453,0.04426 0.0503,0.07531 0.017,0.106629 -0.0299,0.02813 -0.24322,0.11543 -0.37206,0.152298 -0.058,0.01659 -0.159,0.03902 -0.22451,0.04985 -0.0655,0.01084 -0.15419,0.02565 -0.19703,0.03294 -0.11109,0.01888 -0.23285,0.01723 -0.29454,-0.004 -0.15368,-0.05287 -0.20405,-0.119208 -0.1783,-0.234807 0.0234,-0.105052 0.10784,-0.349374 0.14671,-0.424546 0.008,-0.01598 0.013,-0.02906 0.0103,-0.02906 -0.008,0 -0.14667,0.210878 -0.16955,0.256586 -0.0264,0.05275 -0.0904,0.137008 -0.15389,0.202722 l -0.0498,0.05153 0.0434,0.07677 c 0.0239,0.04222 0.0723,0.124195 0.10752,0.182157 0.0352,0.05796 0.0725,0.119322 0.0828,0.136359 l 0.0187,0.03098 0.0785,-0.006 c 0.0432,-0.0033 0.10333,-0.0115 0.13357,-0.01819 0.4201,-0.09273 0.63597,-0.133854 0.70297,-0.133912 0.0572,-4.6e-5 0.12986,0.03301 0.17125,0.07794 0.1021,0.110754 0.21461,0.350147 0.27131,0.577245 0.0558,0.223415 0.0618,0.267727 0.063,0.467353 0.002,0.190955 -1.7e-4,0.203483 -0.0368,0.361969 -0.0297,0.127799 -0.10071,0.323835 -0.16065,0.442914 -0.0505,0.100365 -0.0484,0.106988 0.0131,0.04047 0.0577,-0.06238 0.0802,-0.07527 0.08,-0.04582 -8e-5,0.01888 -0.0402,0.193073 -0.049,0.213058 -0.005,0.01178 0.008,0.01347 0.0874,0.01178 l 0.0935,-0.0019 0.0585,-0.07592 c 0.0322,-0.04176 0.0666,-0.09036 0.0765,-0.107996 0.01,-0.01764 0.0343,-0.05888 0.0542,-0.09164 0.0199,-0.03276 0.0466,-0.07915 0.0594,-0.103093 0.042,-0.07914 0.0457,-0.06473 0.0457,0.178692 0,0.193747 0.003,0.229269 0.0175,0.277205 0.01,0.03024 0.0186,0.0604 0.0199,0.06702 0.002,0.0066 0.013,0.02518 0.0262,0.04124 0.0788,0.0965 0.1262,0.164874 0.15218,0.219501 0.0505,0.106245 0.19312,0.220146 0.40421,0.322908 0.0673,0.03273 0.12514,0.05951 0.12869,0.05952 0.003,3e-6 0.002,-0.01134 -0.005,-0.0252 z m -0.8763,-1.458433 c 0,-0.062 0.004,-0.173135 0.01,-0.246964 0.0119,-0.16375 0.0545,-0.636938 0.0576,-0.639995 0.005,-0.0053 0.17083,0.429401 0.17083,0.448413 0,0.02098 -0.0186,0.0017 -0.0307,-0.032 -0.008,-0.02142 -0.0241,-0.06533 -0.0362,-0.09757 l -0.022,-0.05862 -0.007,0.04945 c -0.003,0.0272 -0.0103,0.0907 -0.0147,0.141095 -0.0214,0.241857 -0.0769,0.490556 -0.12037,0.540205 -0.004,0.0047 -0.008,-0.04202 -0.008,-0.104025 z m -2.25505,1.4618 c -0.0499,-0.04583 -0.283,-0.162525 -0.34747,-0.173953 -0.0176,-0.0031 -0.004,0.0044 0.0305,0.01678 0.0672,0.02412 0.19326,0.08984 0.26686,0.139035 0.0249,0.01666 0.0473,0.02834 0.0496,0.02597 0.003,-0.0024 0.003,-0.0059 5.2e-4,-0.0078 z m -0.73235,-0.0409 c 0,-0.0042 -0.006,-0.01973 -0.0121,-0.03436 -0.007,-0.01463 -0.0204,-0.04499 -0.0307,-0.06745 l -0.0185,-0.04085 -0.0159,0.02419 c -0.0185,0.02821 -0.0121,0.04559 0.0346,0.09533 0.0285,0.03039 0.0425,0.03796 0.0425,0.02314 z m -1.03776,-0.02948 0.028,-0.0098 -0.0224,-0.07043 c -0.043,-0.135165 -0.0937,-0.346001 -0.10412,-0.432403 -0.006,-0.04787 -0.013,-0.192211 -0.0162,-0.320732 -0.003,-0.144243 -0.008,-0.219648 -0.0124,-0.197021 -0.0157,0.08503 -0.0219,0.194913 -0.0214,0.380296 6.1e-4,0.218288 0.0126,0.324203 0.0607,0.533791 0.0312,0.136047 0.0311,0.13595 0.0877,0.116252 z m 1.09864,-0.0705 c 0.0109,-0.01886 0.0376,-0.05463 0.0596,-0.07947 l 0.0399,-0.04518 0.0147,-0.174756 c 0.008,-0.09612 0.0134,-0.176328 0.0118,-0.178249 -0.003,-0.0042 -0.089,0.17096 -0.12553,0.257021 -0.0142,0.03336 -0.0403,0.07774 -0.0583,0.09861 -0.0307,0.03588 -0.0319,0.03956 -0.021,0.06741 0.0125,0.0323 0.0474,0.08891 0.0546,0.0889 0.003,-4e-6 0.0135,-0.01544 0.0242,-0.0343 z m 0.67222,-0.0064 c 0,-0.04004 -6.8e-4,-0.04094 -0.0343,-0.04657 -0.17855,-0.02985 -0.29705,-0.112811 -0.3657,-0.255994 -0.0169,-0.03514 -0.0307,-0.06852 -0.0307,-0.07418 0,-0.01199 -0.0348,-0.04554 -0.0408,-0.03944 -0.003,0.0023 -0.007,0.06455 -0.0104,0.138409 l -0.007,0.134284 0.0219,0.0047 c 0.16708,0.03591 0.29882,0.08459 0.40704,0.15041 0.0251,0.01528 0.0487,0.02808 0.0525,0.02847 0.003,3.9e-4 0.007,-0.01766 0.007,-0.04011 z m -0.38735,-0.03803 c -0.003,-0.003 -0.0109,-0.0033 -0.0175,-7.1e-4 -0.008,0.0029 -0.005,0.0051 0.006,0.0055 0.01,3.99e-4 0.0151,-0.0018 0.012,-0.0048 z m 1.10442,-0.110498 c -0.007,-0.0025 -0.0166,-0.0025 -0.0229,0 -0.007,0.0025 -0.002,0.0047 0.0114,0.0047 0.0125,0 0.0178,-0.002 0.0114,-0.0047 z m -0.84077,-0.01387 c -0.0101,-0.0056 -0.043,-0.0245 -0.0733,-0.04198 -0.0402,-0.02325 -0.0503,-0.02659 -0.0376,-0.01246 0.01,0.01061 0.0385,0.02947 0.0641,0.04192 0.0466,0.02255 0.0815,0.03191 0.0468,0.01252 z m 1.07674,-0.01278 c 0.0983,-0.01356 0.19449,-0.0273 0.38946,-0.0556 l 0.10997,-0.01597 0.0366,-0.05553 c 0.0201,-0.03054 0.038,-0.05872 0.0398,-0.0626 0.002,-0.0039 -0.0174,0.0011 -0.0426,0.01099 -0.10602,0.04178 -0.36139,0.112213 -0.56983,0.157141 -0.0932,0.02009 -0.17366,0.03838 -0.17869,0.04061 -0.0146,0.0064 0.11036,-0.0046 0.21535,-0.01904 z m -0.38468,-0.03605 c 0.31772,-0.05377 0.71213,-0.160871 1.003,-0.272357 0.14831,-0.05685 0.2212,-0.09332 0.23389,-0.117027 0.0123,-0.02292 0.0126,-0.02295 -0.0474,0.0036 -0.0584,0.02586 -0.11758,0.04325 -0.11758,0.03459 0,-0.0033 0.0461,-0.09781 0.10248,-0.209877 0.0563,-0.112067 0.1,-0.206271 0.0969,-0.209343 -0.003,-0.003 -0.0127,0.0082 -0.0214,0.02505 -0.0435,0.08427 -0.13885,0.213429 -0.21194,0.287219 -0.0907,0.09154 -0.20119,0.165826 -0.30208,0.20305 -0.11611,0.04284 -0.13555,0.039 -0.0869,-0.01716 0.0465,-0.05362 0.14381,-0.193253 0.20327,-0.291557 0.16274,-0.269064 0.25235,-0.540434 0.26274,-0.79572 l 0.006,-0.131635 -0.0556,0.04 c -0.0306,0.02199 -0.10381,0.07298 -0.16276,0.113307 -0.10623,0.07265 -0.13327,0.09283 -0.22274,0.166195 -0.0403,0.03301 -0.0566,0.03981 -0.1269,0.05271 -0.1081,0.01984 -0.25253,0.0188 -0.37008,-0.0027 -0.1091,-0.01992 -0.22539,-0.06036 -0.23654,-0.08225 -0.0138,-0.02714 -0.0464,-0.169968 -0.0489,-0.214234 -0.003,-0.03209 -0.007,-0.04495 -0.0186,-0.04875 -0.0372,-0.01193 -0.071,-0.05081 -0.071,-0.08178 0,-0.0329 0.0377,-0.07367 0.0763,-0.08241 0.0709,-0.01606 0.11739,-0.0245 0.20062,-0.03645 0.13002,-0.01867 0.27402,-0.05845 0.41495,-0.11462 0.22302,-0.08891 0.21959,-0.08861 0.31314,-0.02749 0.0522,0.03414 0.19401,0.178391 0.18458,0.18782 -0.003,0.0023 -0.0394,-0.01023 -0.0826,-0.02781 -0.0431,-0.01758 -0.0995,-0.03597 -0.12536,-0.04087 -0.0773,-0.01466 -0.17444,0.0115 -0.27877,0.07504 -0.0476,0.02901 -0.051,0.03293 -0.032,0.03799 0.0116,0.0031 0.0364,0.0057 0.0552,0.0058 0.0188,7.3e-5 0.0668,0.0067 0.10647,0.01469 l 0.0723,0.01457 0.0895,-0.02865 c 0.0491,-0.01577 0.0919,-0.02623 0.0948,-0.02326 0.003,0.003 -0.003,0.02587 -0.0108,0.05092 -0.009,0.02504 -0.0136,0.04959 -0.0106,0.05454 0.003,0.005 0.0208,0.0066 0.0394,0.0037 0.0186,-0.0029 0.0709,-0.008 0.11629,-0.01148 l 0.0824,-0.0062 -0.003,-0.07332 c -0.003,-0.07919 -0.0431,-0.250011 -0.0753,-0.324793 -0.0161,-0.03731 -0.0242,-0.04634 -0.042,-0.04634 -0.0387,0 -0.28874,0.02777 -0.37891,0.04209 -0.29295,0.0465 -0.65973,0.16287 -0.93754,0.297441 l -0.11738,0.05686 -0.15295,-0.150625 c -0.16389,-0.161398 -0.25507,-0.232047 -0.48405,-0.375044 -0.13479,-0.08418 -0.23605,-0.139339 -0.276,-0.150351 -0.0204,-0.0056 -0.0206,-0.0047 -0.0206,0.08657 0,0.05074 0.002,0.09225 0.003,0.09225 0.003,0 0.0233,-0.0111 0.0475,-0.02468 0.0306,-0.01708 0.0575,-0.02468 0.0874,-0.02468 0.0404,0 0.0474,0.0037 0.10344,0.05624 0.1049,0.09813 0.16962,0.148053 0.33628,0.259414 0.0894,0.05971 0.16903,0.117912 0.17704,0.129345 0.0308,0.04404 0.009,0.108347 -0.0373,0.108347 -0.0135,0 -0.0214,0.0054 -0.0214,0.01444 0,0.008 -0.0222,0.06129 -0.0495,0.118543 -0.048,0.101002 -0.0505,0.104297 -0.084,0.110581 -0.10008,0.01877 -0.47779,-0.02926 -0.51829,-0.06591 -0.014,-0.01269 -0.0157,-0.0092 -0.0211,0.04403 -0.003,0.0318 -0.0107,0.09493 -0.0165,0.140295 -0.006,0.04536 -0.0107,0.14433 -0.0108,0.219932 -3.5e-4,0.219132 0.0203,0.27569 0.16419,0.448756 0.1894,0.227814 0.4071,0.414876 0.57323,0.492536 0.0918,0.04289 0.087,0.04458 0.0998,-0.03495 0.007,-0.0385 0.0213,-0.111027 0.0334,-0.161157 0.0122,-0.05013 0.0221,-0.09243 0.0221,-0.094 0,-0.0015 -0.0124,-0.0053 -0.0274,-0.0083 -0.0457,-0.0091 -0.16317,-0.07159 -0.21841,-0.116057 l -0.0519,-0.04184 -0.003,-0.07982 -0.003,-0.07982 0.0256,4.6e-5 c 0.0141,2.8e-5 0.10976,0.0084 0.21268,0.0186 0.10291,0.01021 0.18981,0.01534 0.1931,0.0114 0.003,-0.0039 0.0339,-0.05148 0.0679,-0.105664 0.0341,-0.05418 0.0668,-0.09852 0.0727,-0.09852 0.008,-8e-6 0.01,0.03149 0.008,0.113527 l -0.003,0.113539 0.0763,0.0068 c 0.11371,0.01006 0.11231,0.009 0.0856,0.06657 -0.0316,0.06818 -0.0641,0.107692 -0.11708,0.141878 l -0.0459,0.02968 0.006,0.109966 c 0.003,0.06048 0.008,0.141924 0.0118,0.180984 l 0.007,0.07102 h 0.0272 c 0.0149,0 0.0882,-0.01033 0.16275,-0.02294 z m 1.73257,-0.423051 c -0.006,-0.04451 -0.01,-0.08711 -0.01,-0.09467 -3e-5,-0.0075 -0.0211,0.0191 -0.0468,0.05925 -0.0258,0.04015 -0.0433,0.07422 -0.039,0.07573 0.004,0.0015 0.0285,0.01241 0.0536,0.02423 0.0252,0.01183 0.0472,0.02036 0.0489,0.01894 0.002,-0.0014 -0.002,-0.03897 -0.007,-0.08348 z m -2.19093,0.01979 c 0.006,-0.01769 0.0154,-0.03728 0.0214,-0.04353 0.012,-0.01273 0.0543,-0.09949 0.0501,-0.102709 -0.002,-0.0011 -0.0542,-0.0069 -0.11727,-0.01274 -0.13539,-0.01262 -0.22909,-0.01361 -0.22909,-0.0025 0,0.03924 0.015,0.06635 0.0509,0.09214 0.0508,0.03647 0.17752,0.101448 0.19788,0.101448 0.01,0 0.0197,-0.01216 0.0262,-0.03216 z m 1.40785,-0.08406 c 0.10083,-0.09635 0.16259,-0.181556 0.25785,-0.355724 0.15864,-0.290035 0.1913,-0.51976 0.13986,-0.983493 -0.0158,-0.142782 -0.003,-0.129908 -0.12961,-0.129908 -0.0599,0 -0.10896,0.0024 -0.10896,0.0051 0,0.0029 0.0143,0.0548 0.0318,0.11547 0.0425,0.147625 0.054,0.233292 0.0536,0.397141 -6.1e-4,0.21139 -0.0285,0.365833 -0.10204,0.563573 -0.0382,0.102881 -0.11961,0.271044 -0.16947,0.350245 -0.0716,0.113682 -0.0748,0.120116 -0.0558,0.109652 0.01,-0.0053 0.0469,-0.03773 0.0829,-0.0721 z m -2.69539,0.06079 c 0.0504,-0.0049 0.12875,-0.01954 0.17412,-0.03258 0.10167,-0.02924 0.20844,-0.07663 0.20264,-0.08994 -0.049,-0.112354 -0.0702,-0.177741 -0.0792,-0.243594 -0.0106,-0.07719 -0.0135,-0.292725 -0.004,-0.332263 0.0138,-0.06038 0.0323,-0.280254 0.0323,-0.383262 v -0.118136 l -0.0504,-0.106853 c -0.0277,-0.05877 -0.0504,-0.11085 -0.0504,-0.115736 0,-0.0086 0.0169,-0.0065 0.0631,0.0076 l 0.0219,0.0068 -0.008,-0.113655 c -0.0218,-0.323367 0.01,-0.574696 0.0881,-0.696329 0.0245,-0.03805 0.0414,-0.05267 0.086,-0.07374 0.0721,-0.03409 0.13483,-0.0349 0.21133,-0.0028 0.0302,0.01272 0.0859,0.03486 0.12371,0.04921 0.0378,0.01435 0.10887,0.04509 0.15792,0.0683 0.0986,0.04666 0.11501,0.04965 0.14379,0.02618 0.0196,-0.01592 0.0189,-0.01656 -0.0791,-0.08578 -0.12308,-0.08685 -0.26513,-0.21366 -0.31776,-0.283665 -0.0647,-0.08609 -0.0634,-0.133682 0.005,-0.197273 0.078,-0.07238 0.14829,-0.09726 0.27131,-0.09608 0.0781,7.81e-4 0.10926,0.0057 0.18327,0.02918 0.0491,0.01555 0.12214,0.04479 0.16247,0.06498 0.0403,0.0202 0.0691,0.03271 0.0641,0.02781 -0.019,-0.01844 -0.15206,-0.112431 -0.30698,-0.216789 -0.0882,-0.05941 -0.16587,-0.11324 -0.17261,-0.119614 -0.0101,-0.0096 -0.008,-0.01477 0.0137,-0.0298 0.0143,-0.01001 0.0507,-0.0276 0.081,-0.03907 0.0607,-0.02301 0.16877,-0.02714 0.2584,-0.0099 0.0747,0.01439 0.21488,0.07029 0.30114,0.120113 0.0434,0.02503 0.0807,0.04549 0.0831,0.04549 0.007,0 -0.0529,-0.08391 -0.0873,-0.121997 -0.0694,-0.07675 -0.18369,-0.149029 -0.29184,-0.18445 -0.05,-0.01637 -0.0632,-0.03228 -0.0275,-0.03307 0.0113,-2.51e-4 0.0689,-0.0026 0.12787,-0.0052 0.18829,-0.0084 0.39522,0.03892 0.50701,0.115832 0.0225,0.0155 0.0409,0.02578 0.0409,0.02285 0,-0.01245 -0.051,-0.105446 -0.0881,-0.160502 -0.0355,-0.05284 -0.14188,-0.177174 -0.12789,-0.149545 0.01,0.01909 -0.008,0.02048 -0.12833,0.01038 -0.34034,-0.02844 -0.72594,0.10729 -0.96488,0.339641 -0.0855,0.08317 -0.14975,0.182506 -0.17332,0.268116 l -0.009,0.03331 0.0506,-0.01777 c 0.0588,-0.02069 0.16731,-0.03588 0.16731,-0.02344 0,0.0047 -0.009,0.01065 -0.0192,0.0134 -0.0903,0.02362 -0.2458,0.130245 -0.29638,0.203221 -0.0483,0.06974 -0.0896,0.225685 -0.11069,0.41776 -0.003,0.03024 -0.009,0.186941 -0.0137,0.348223 -0.009,0.325745 -0.0158,0.377473 -0.0683,0.488156 -0.0685,0.144227 -0.21068,0.310781 -0.3734,0.437386 l -0.0707,0.05498 0.0283,0.0075 c 0.055,0.01444 0.19859,-0.0075 0.28752,-0.04399 0.0451,-0.01852 0.092,-0.036 0.10408,-0.03883 0.0194,-0.0046 0.0214,-0.0025 0.0167,0.01679 -0.003,0.01206 -0.008,0.04668 -0.0116,0.07692 -0.0188,0.163897 -0.15722,0.466855 -0.34498,0.75536 -0.0341,0.05256 -0.06,0.09775 -0.0574,0.100423 0.0153,0.01535 0.16261,0.02059 0.27441,0.0098 z m 1.58537,-0.01915 c 0.038,-0.0333 0.0553,-0.06172 0.0443,-0.07221 -0.004,-0.0041 -0.0284,-0.0088 -0.0535,-0.01047 l -0.0458,-0.0031 -7e-4,0.04582 c -0.002,0.07863 0.006,0.08369 0.0557,0.03998 z m 0.69383,-0.741972 c 0.0719,-0.0114 0.0924,-0.02498 0.21794,-0.144749 0.0795,-0.07584 0.0857,-0.08415 0.0711,-0.09565 -0.0153,-0.01207 -0.15897,-0.05361 -0.22779,-0.06587 l -0.0329,-0.0059 -0.005,0.05014 c -0.009,0.08416 -0.0522,0.14721 -0.12933,0.187635 -0.0395,0.0207 -0.0585,0.02458 -0.12023,0.02458 -0.0618,0 -0.0806,-0.0038 -0.12048,-0.02471 -0.0588,-0.03076 -0.0999,-0.07967 -0.11967,-0.142178 -0.008,-0.02646 -0.0184,-0.04811 -0.0224,-0.04811 -0.004,0 -0.0218,0.0069 -0.0396,0.01544 -0.0378,0.01803 -0.0393,0.02841 -0.0178,0.123206 0.0145,0.06357 0.0152,0.06461 0.0573,0.08281 0.11907,0.05151 0.3233,0.0696 0.48906,0.04332 z m -0.17904,-0.122729 c 0.0254,-0.0075 0.0572,-0.02237 0.0707,-0.03294 0.0321,-0.02525 0.0606,-0.08225 0.0606,-0.1213 0,-0.02831 -0.003,-0.0317 -0.0306,-0.0362 -0.0312,-0.0051 -0.2102,0.0065 -0.23517,0.0152 -0.008,0.0026 -0.0313,0.0093 -0.0527,0.01476 -0.0444,0.01137 -0.0473,0.02124 -0.0208,0.073 0.0201,0.03922 0.0585,0.07049 0.10913,0.08857 0.0425,0.01521 0.0441,0.01519 0.0989,-0.0011 z m -1.14281,-0.12669 c 0.0513,-0.106083 0.0506,-0.11036 -0.0282,-0.148098 l -0.0651,-0.03121 -0.0274,0.05469 c -0.0302,0.06042 -0.0878,0.111587 -0.14492,0.128696 -0.0187,0.0056 -0.065,0.0086 -0.1027,0.0068 -0.0577,-0.0029 -0.0762,-0.0081 -0.11535,-0.03246 l -0.0466,-0.02899 0.009,0.02285 c 0.0187,0.04929 0.0262,0.0556 0.0793,0.06673 0.12096,0.02537 0.20531,0.03552 0.30254,0.03641 l 0.10283,9.32e-4 z m -0.28581,-0.06626 c 0.0532,-0.02224 0.12019,-0.09678 0.11023,-0.122724 -0.002,-0.0041 -0.0248,-0.02609 -0.0517,-0.04893 l -0.0488,-0.0415 -0.10458,-0.0065 c -0.089,-0.0055 -0.10801,-0.0042 -0.12756,0.0085 -0.0335,0.02197 -0.0319,0.07948 0.003,0.135895 0.049,0.07718 0.1394,0.108332 0.21855,0.07527 z m 0.78471,-0.219354 c 0.0311,-0.01969 0.26827,-0.110346 0.36735,-0.140407 0.36038,-0.109343 0.66859,-0.160078 1.05033,-0.172897 l 0.17061,-0.0058 -0.0225,-0.05588 c -0.0263,-0.06542 -0.0971,-0.202126 -0.12079,-0.233425 l -0.0165,-0.02176 -0.0907,0.02768 c -0.35553,0.108438 -0.55501,0.144792 -0.8454,0.154056 -0.0889,0.0029 -0.18558,0.0018 -0.21476,-0.0024 l -0.053,-0.0075 -0.0419,-0.09164 c -0.0834,-0.182853 -0.12506,-0.276212 -0.1523,-0.341666 -0.0153,-0.03671 -0.0311,-0.06558 -0.0352,-0.06415 -0.0126,0.0044 -0.10416,0.11573 -0.20736,0.252245 -0.058,0.07664 -0.10502,0.13054 -0.11406,0.130584 -0.008,3.7e-5 -0.0785,-0.02079 -0.15579,-0.04631 -0.15223,-0.0503 -0.32022,-0.128503 -0.4318,-0.201027 -0.0388,-0.0252 -0.0729,-0.04584 -0.0756,-0.04584 -0.015,0 -0.0433,0.09506 -0.0536,0.180188 -0.0113,0.09299 -0.011,0.09737 0.006,0.101713 0.0361,0.0094 0.14676,0.06704 0.23618,0.122912 0.29914,0.186937 0.3319,0.211982 0.55886,0.427361 l 0.10501,0.09965 0.0591,-0.02682 c 0.0325,-0.01475 0.0677,-0.03227 0.0783,-0.03893 z m -0.85907,-0.107766 c -0.013,-0.01638 -0.0424,-0.05716 -0.0652,-0.09062 -0.0228,-0.03346 -0.0475,-0.06315 -0.055,-0.06599 -0.008,-0.0029 -0.0311,-3.7e-5 -0.0528,0.0062 -0.0386,0.01112 -0.0395,0.01225 -0.0421,0.05453 -0.002,0.0255 0.002,0.04317 0.007,0.04317 0.005,0 0.0359,0.01614 0.0681,0.03587 0.06,0.03672 0.079,0.04317 0.13305,0.04536 l 0.031,0.0013 z m 1.68003,-0.419281 c 0.063,-0.0108 0.15578,-0.03001 0.20618,-0.04267 0.0884,-0.0222 0.35362,-0.102539 0.36098,-0.109318 0.008,-0.007 -0.0205,-0.03116 -0.057,-0.04866 -0.0364,-0.01744 -0.0424,-0.01771 -0.12525,-0.0053 -0.13597,0.02026 -0.35272,0.06298 -0.48569,0.09571 -0.17061,0.042 -0.35138,0.06109 -0.40778,0.04305 -0.0116,-0.0037 -0.0624,-0.08041 -0.13746,-0.207572 -0.0655,-0.110941 -0.12418,-0.208916 -0.13034,-0.21772 -0.014,-0.02004 0.0333,0.09242 0.10705,0.254321 0.031,0.06804 0.0693,0.15341 0.0851,0.189707 0.028,0.06454 0.0296,0.06609 0.0659,0.0701 0.0959,0.01056 0.40622,-0.0024 0.51831,-0.02159 z m 1.55162,-0.164241 c 0.10848,-0.08522 0.24175,-0.292729 0.27741,-0.431932 0.0126,-0.0494 0.0124,-0.05663 -0.005,-0.107458 -0.0254,-0.07552 -0.0855,-0.2028 -0.12522,-0.265571 -0.0512,-0.0808 -0.1067,-0.15035 -0.11358,-0.142274 -0.003,0.004 -0.0113,0.02583 -0.0176,0.04852 -0.0519,0.187316 -0.19166,0.448897 -0.28799,0.539296 l -0.023,0.02154 0.0533,0.10675 c 0.0293,0.05872 0.0692,0.152849 0.0886,0.209194 l 0.0353,0.102444 0.0321,-0.0193 c 0.0176,-0.01062 0.0561,-0.03816 0.0854,-0.06121 z m -2.67737,0.02912 c 0.0271,-0.04391 0.18678,-0.244633 0.25891,-0.32551 0.0304,-0.03413 0.0604,-0.0601 0.0667,-0.05771 0.009,0.0033 0.009,-7.11e-4 0.002,-0.01776 -0.009,-0.01889 -0.0129,-0.02063 -0.0293,-0.012 -0.0106,0.0055 -0.0823,0.07337 -0.15915,0.150685 -0.16331,0.164187 -0.19152,0.182196 -0.27185,0.173527 -0.0627,-0.0068 -0.18775,-0.06056 -0.27377,-0.117753 -0.0702,-0.04668 -0.12352,-0.07023 -0.15948,-0.07049 -0.0295,-1.99e-4 -0.076,0.01616 -0.076,0.02675 0,0.01356 0.19715,0.126971 0.31439,0.180846 0.11673,0.05364 0.2536,0.102058 0.29197,0.103281 0.008,2.69e-4 0.0249,-0.01497 0.0365,-0.03388 z m -0.94557,-0.570717 c 0.0236,-0.07736 0.0599,-0.146545 0.10624,-0.202002 0.0174,-0.02075 0.0315,-0.0441 0.0315,-0.0519 0,-0.02792 0.0388,-0.145453 0.0659,-0.199433 0.0152,-0.03024 0.0419,-0.07251 0.0594,-0.09393 0.0175,-0.02142 0.0279,-0.03895 0.0231,-0.03895 -0.0241,0 -0.12573,0.08938 -0.17062,0.150068 -0.11692,0.158117 -0.17544,0.323538 -0.19347,0.546958 -0.005,0.06582 -0.003,0.08355 0.01,0.109964 l 0.0164,0.0315 0.0155,-0.09191 c 0.009,-0.05055 0.0248,-0.122716 0.0363,-0.160366 z m 3.40081,0.02594 c 0.0657,-0.09598 0.11514,-0.200573 0.16951,-0.358985 0.0443,-0.128878 0.047,-0.143199 0.0273,-0.143199 -0.0184,0 -0.0232,0.01012 -0.043,0.09022 -0.0361,0.145747 -0.12514,0.292431 -0.25059,0.412908 l -0.0605,0.05804 0.0163,0.0231 c 0.009,0.01271 0.0204,0.02859 0.0253,0.0353 0.0126,0.01726 0.0476,-0.01828 0.11551,-0.117385 z m -1.61449,-0.870258 7.1e-4,-0.06109 -0.0573,-0.05222 c -0.0611,-0.05575 -0.17806,-0.141758 -0.1927,-0.141758 -0.005,0 0.0179,0.0283 0.0505,0.06288 0.0721,0.0764 0.14767,0.189416 0.16888,0.252491 0.0143,0.04247 0.0163,0.04456 0.0223,0.0237 0.003,-0.0126 0.007,-0.0504 0.008,-0.084 z m 0.13538,0.0025 c 0.004,-0.003 0.005,-0.03235 0.003,-0.06511 -0.003,-0.03276 -0.006,-0.04916 -0.007,-0.03645 -0.002,0.02109 -0.0264,0.115585 -0.0423,0.160168 -0.003,0.01007 0.003,0.0023 0.0163,-0.01736 0.0125,-0.01963 0.0263,-0.03818 0.0305,-0.04124 z"
       id="path4667" />
    <path
       id="path5971"
       d="m 297.56912,-28.265893 v -21.166666 h 21.16667 21.16666 v 21.166666 21.1666663 h -21.16666 -21.16667 z"
       style="fill:#fdfdfd;stroke-width:0.105833" />
  </g>
</svg>
