<?xml version="1.0" encoding="UTF-8" standalone="no"?>
<svg
   xmlns:dc="http://purl.org/dc/elements/1.1/"
   xmlns:cc="http://creativecommons.org/ns#"
   xmlns:rdf="http://www.w3.org/1999/02/22-rdf-syntax-ns#"
   xmlns:svg="http://www.w3.org/2000/svg"
   xmlns="http://www.w3.org/2000/svg"
   xmlns:sodipodi="http://sodipodi.sourceforge.net/DTD/sodipodi-0.dtd"
   xmlns:inkscape="http://www.inkscape.org/namespaces/inkscape"
   sodipodi:docname="logo-icon.svg"
   inkscape:version="1.0 (4035a4fb49, 2020-05-01)"
   id="svg892"
   version="1.1"
   viewBox="0 0 51.004459 14.023512"
   height="53.002251"
   width="192.77277">
  <defs
     id="defs886">
    <rect
       id="rect1870"
       height="25.324406"
       width="59.909225"
       y="59.409737"
       x="52.91864" />
    <marker
       inkscape:isstock="true"
       style="overflow:visible"
       id="Arrow1Lstart"
       refX="0"
       refY="0"
       orient="auto"
       inkscape:stockid="Arrow1Lstart">
      <path
         transform="matrix(0.8,0,0,0.8,10,0)"
         style="fill:#000000;fill-opacity:1;fill-rule:evenodd;stroke:#000000;stroke-width:1pt;stroke-opacity:1"
         d="M 0,0 5,-5 -12.5,0 5,5 Z"
         id="path1536" />
    </marker>
    <rect
       id="rect1514"
       height="16.236624"
       width="20.312485"
       y="79.995499"
       x="74.897743" />
    <filter
       height="1.000124"
       y="-6.200745e-05"
       width="1.0000226"
       x="-1.1328061e-05"
       id="filter1864"
       style="color-interpolation-filters:sRGB"
       inkscape:collect="always">
      <feGaussianBlur
         id="feGaussianBlur1866"
         stdDeviation="0.00013502631"
         inkscape:collect="always" />
    </filter>
  </defs>
  <sodipodi:namedview
     inkscape:window-maximized="0"
     inkscape:window-y="57"
     inkscape:window-x="2660"
     inkscape:window-height="1152"
     inkscape:window-width="2394"
     units="px"
     fit-margin-bottom="0"
     fit-margin-right="0"
     fit-margin-left="0"
     fit-margin-top="0"
     showgrid="false"
     inkscape:document-rotation="0"
     inkscape:current-layer="layer1"
     inkscape:document-units="mm"
     inkscape:cy="40.403357"
     inkscape:cx="49.866889"
     inkscape:zoom="5.6"
     inkscape:pageshadow="2"
     inkscape:pageopacity="0.0"
     borderopacity="1.0"
     bordercolor="#666666"
     pagecolor="#ffffff"
     id="base" />
  <metadata
     id="metadata889">
    <rdf:RDF>
      <cc:Work
         rdf:about="">
        <dc:format>image/svg+xml</dc:format>
        <dc:type
           rdf:resource="http://purl.org/dc/dcmitype/StillImage" />
        <dc:title></dc:title>
      </cc:Work>
    </rdf:RDF>
  </metadata>
  <g
     transform="translate(-57.974073,-65.504603)"
     id="layer1"
     inkscape:groupmode="layer"
     inkscape:label="Layer 1">
    <path
       style="fill:#010101;stroke-width:0.0374423"
       d="m 63.955087,79.508522 c -0.339109,-0.04139 -0.5684,-0.269343 -0.599818,-0.596317 -0.01436,-0.149504 -0.02999,-0.183185 -0.0786,-0.169369 -0.03337,0.0095 -0.27128,0.08102 -0.528696,0.158971 -0.628916,0.190442 -0.951622,0.196469 -1.317206,0.0246 -0.328926,-0.15463 -0.56584,-0.377939 -0.702655,-0.662301 -0.06066,-0.126083 -0.705138,-2.225855 -1.432167,-4.666162 l -1.321872,-4.436916 v -0.374424 c 0,-0.326309 0.01268,-0.401464 0.09867,-0.584849 0.119466,-0.254783 0.313095,-0.475867 0.549191,-0.627055 0.133734,-0.08564 0.965256,-0.347322 3.470256,-1.092096 2.969844,-0.882979 3.320258,-0.979324 3.557025,-0.977988 0.414397,0.0024 0.776608,0.162403 1.057785,0.467444 0.219293,0.237906 0.270989,0.358859 0.534427,1.250399 l 0.234827,0.794722 2.031889,0.01028 2.03189,0.01029 0.139916,0.113264 c 0.07696,0.0623 0.171334,0.171815 0.209733,0.243375 0.06732,0.125452 0.06947,0.319334 0.0601,5.415373 l -0.0097,5.28526 -0.114322,0.141245 c -0.06287,0.07768 -0.177265,0.173908 -0.254193,0.213831 -0.135388,0.07026 -0.256517,0.07274 -3.779683,0.07752 -2.001897,0.0027 -3.728452,-0.0059 -3.83679,-0.01911 z M 62.60804,77.435715 c 0.313789,-0.09271 0.608434,-0.18502 0.65477,-0.205129 l 0.08424,-0.03657 v -4.335339 c 0,-4.151098 0.003,-4.340844 0.06947,-4.464866 0.03821,-0.07124 0.13241,-0.180495 0.209342,-0.242791 l 0.139873,-0.113265 1.103156,-0.01097 c 1.019457,-0.01014 1.101733,-0.01582 1.084402,-0.07488 -0.164871,-0.561901 -0.297152,-1.002099 -0.303602,-1.01031 -0.01246,-0.01587 -6.211996,1.830138 -6.239732,1.857985 -0.0134,0.01345 0.529689,1.886288 1.206874,4.161846 1.476035,4.959962 1.380239,4.642853 1.402569,4.642853 0.01,0 0.274851,-0.07585 0.588639,-0.168567 z"
       id="path1838" />
    <text
       transform="matrix(0.99669572,0.00632154,-0.00628008,1.0032754,0,0)"
       id="text1501"
       y="76.613541"
       x="65.112518"
       style="font-style:normal;font-variant:normal;font-weight:bold;font-stretch:normal;font-size:7.61933px;line-height:1.25;font-family:'Century Gothic';-inkscape-font-specification:'Century Gothic, Bold';font-variant-ligatures:normal;font-variant-caps:normal;font-variant-numeric:normal;font-variant-east-asian:normal;fill:#ffffff;fill-opacity:1;stroke:none;stroke-width:0.190484"
       xml:space="preserve"><tspan
         style="font-style:normal;font-variant:normal;font-weight:bold;font-stretch:normal;font-size:7.61933px;font-family:'Century Gothic';-inkscape-font-specification:'Century Gothic, Bold';font-variant-ligatures:normal;font-variant-caps:normal;font-variant-numeric:normal;font-variant-east-asian:normal;fill:#ffffff;stroke-width:0.190484"
         y="76.613541"
         x="65.112518"
         id="tspan1499"
         sodipodi:role="line">G</tspan></text>
    <text
       xml:space="preserve"
       style="font-style:normal;font-variant:normal;font-weight:bold;font-stretch:normal;font-size:7.003px;line-height:1.25;font-family:'Century Gothic';-inkscape-font-specification:'Century Gothic, Bold';font-variant-ligatures:normal;font-variant-caps:normal;font-variant-numeric:normal;font-variant-east-asian:normal;letter-spacing:0.253798px;fill:#000000;fill-opacity:1;stroke:none;stroke-width:0.175075;filter:url(#filter1864)"
       x="73.392151"
       y="75.215309"
       id="text1850"
       transform="matrix(1.1845163,0.00751279,-0.00746352,1.1923359,-13.746569,-12.936087)"><tspan
         sodipodi:role="line"
         id="tspan1848"
         x="73.392151"
         y="75.215309"
         style="font-style:normal;font-variant:normal;font-weight:bold;font-stretch:normal;font-size:7.003px;font-family:'Century Gothic';-inkscape-font-specification:'Century Gothic, Bold';font-variant-ligatures:normal;font-variant-caps:normal;font-variant-numeric:normal;font-variant-east-asian:normal;fill:#000000;stroke-width:0.175075">enerator</tspan></text>
    <text
       transform="matrix(0.53682664,0.00340482,-0.00338249,0.54037051,34.051974,30.285066)"
       id="text1880"
       y="75.215309"
       x="73.392151"
       style="font-style:normal;font-variant:normal;font-weight:normal;font-stretch:normal;font-size:7.003px;line-height:1.25;font-family:Tahoma;-inkscape-font-specification:'Tahoma, Normal';font-variant-ligatures:normal;font-variant-caps:normal;font-variant-numeric:normal;font-variant-east-asian:normal;letter-spacing:0.75650488px;fill:#d40000;fill-opacity:1;stroke:none;stroke-width:0.175075;filter:url(#filter1864)"
       xml:space="preserve"><tspan
         style="font-style:normal;font-variant:normal;font-weight:normal;font-stretch:normal;font-size:7.003px;font-family:Tahoma;-inkscape-font-specification:'Tahoma, Normal';font-variant-ligatures:normal;font-variant-caps:normal;font-variant-numeric:normal;font-variant-east-asian:normal;fill:#d40000;stroke-width:0.175075;"
         y="75.215309"
         x="73.392151"
         id="tspan1878"
         sodipodi:role="line">RPG</tspan></text>
  </g>
</svg>
